SplineFontDB: 3.0
FontName: Carthage-Sans-Bold
FullName: Carthage Sans Bold
FamilyName: Carthage Sans
Weight: Bold
Copyright: Copyright csyde 2015
Version: 1.0
ItalicAngle: 0
UnderlinePosition: 127
UnderlineWidth: 51
Ascent: 819
Descent: 205
InvalidEm: 0
sfntRevision: 0x00010000
LayerCount: 2
Layer: 0 1 "Back" 1
Layer: 1 1 "Fore" 0
XUID: [1021 273 464692840 11397433]
FSType: 4
OS2Version: 2
OS2_WeightWidthSlopeOnly: 0
OS2_UseTypoMetrics: 1
CreationTime: 1439400102
ModificationTime: 1439401060
PfmFamily: 81
TTFWeight: 800
TTFWidth: 5
LineGap: 0
VLineGap: 0
Panose: 0 0 4 0 0 0 0 0 0 0
OS2TypoAscent: 576
OS2TypoAOffset: 0
OS2TypoDescent: -192
OS2TypoDOffset: 0
OS2TypoLinegap: 0
OS2WinAscent: 832
OS2WinAOffset: 0
OS2WinDescent: 192
OS2WinDOffset: 0
HheadAscent: 832
HheadAOffset: 0
HheadDescent: -192
HheadDOffset: 0
OS2SubXSize: 512
OS2SubYSize: 512
OS2SubXOff: 0
OS2SubYOff: -96
OS2SupXSize: 512
OS2SupYSize: 512
OS2SupXOff: 0
OS2SupYOff: 512
OS2StrikeYSize: 51
OS2StrikeYPos: 204
OS2CapHeight: 0
OS2XHeight: 0
OS2Vendor: 'FSTR'
OS2CodePages: 000001fb.00000000
OS2UnicodeRanges: a0000007.0000000a.00000000.00000000
MacStyle: 1
MarkAttachClasses: 1
DEI: 91125
ShortTable: maxp 16
  1
  0
  211
  48
  5
  0
  0
  2
  0
  0
  0
  0
  0
  0
  0
  0
EndShort

StartChar: .notdef
Encoding: 65536 -1 0
Width: 512
Flags: W
LayerCount: 2
Back
Fore
SplineSet
288 81 m 1,0,-1
 288 173 l 1,1,-1
 196 173 l 1,2,-1
 196 81 l 1,3,-1
 288 81 l 1,0,-1
379 188 m 1,4,-1
 379 280 l 1,5,-1
 196 280 l 1,6,-1
 196 188 l 1,7,-1
 379 188 l 1,4,-1
288 295 m 1,8,-1
 288 387 l 1,9,-1
 196 387 l 1,10,-1
 196 295 l 1,11,-1
 288 295 l 1,8,-1
379 402 m 1,12,-1
 379 493 l 1,13,-1
 288 493 l 2,14,15
 249 493 249 493 223 467 c 0,16,17
 196 440 196 440 196 402 c 1,18,-1
 379 402 l 1,12,-1
0 0 m 1,19,-1
 0 576 l 1,20,-1
 576 576 l 1,21,-1
 576 0 l 1,22,-1
 0 0 l 1,19,-1
EndSplineSet
Validated: 1
EndChar

StartChar: exclam
Encoding: 33 33 4
Width: 256
Flags: W
LayerCount: 2
Back
Fore
SplineSet
0 0 m 1,0,-1
 0 128 l 1,1,-1
 128 128 l 1,2,-1
 128 0 l 1,3,-1
 0 0 l 1,0,-1
0 192 m 1,4,-1
 0 576 l 1,5,-1
 128 576 l 1,6,-1
 128 192 l 1,7,-1
 0 192 l 1,4,-1
EndSplineSet
Validated: 1
EndChar

StartChar: quotedbl
Encoding: 34 34 5
Width: 448
Flags: W
LayerCount: 2
Back
Fore
SplineSet
0 384 m 1,0,-1
 0 576 l 1,1,-1
 128 576 l 1,2,-1
 128 384 l 1,3,-1
 0 384 l 1,0,-1
192 384 m 1,4,-1
 192 576 l 1,5,-1
 320 576 l 1,6,-1
 320 384 l 1,7,-1
 192 384 l 1,4,-1
EndSplineSet
Validated: 1
EndChar

StartChar: numbersign
Encoding: 35 35 6
Width: 576
Flags: W
LayerCount: 2
Back
Fore
SplineSet
256 320 m 1,0,-1
 256 384 l 1,1,-1
 192 384 l 1,2,-1
 192 320 l 1,3,-1
 256 320 l 1,0,-1
128 128 m 1,4,-1
 128 256 l 1,5,-1
 0 256 l 1,6,-1
 0 320 l 1,7,-1
 128 320 l 1,8,-1
 128 384 l 1,9,-1
 0 384 l 1,10,-1
 0 448 l 1,11,-1
 128 448 l 1,12,-1
 128 576 l 1,13,-1
 192 576 l 1,14,-1
 192 448 l 1,15,-1
 256 448 l 1,16,-1
 256 576 l 1,17,-1
 320 576 l 1,18,-1
 320 448 l 1,19,-1
 448 448 l 1,20,-1
 448 384 l 1,21,-1
 320 384 l 1,22,-1
 320 320 l 1,23,-1
 448 320 l 1,24,-1
 448 256 l 1,25,-1
 320 256 l 1,26,-1
 320 128 l 1,27,-1
 256 128 l 1,28,-1
 256 256 l 1,29,-1
 192 256 l 1,30,-1
 192 128 l 1,31,-1
 128 128 l 1,4,-1
EndSplineSet
Validated: 1
EndChar

StartChar: dollar
Encoding: 36 36 7
Width: 576
Flags: W
LayerCount: 2
Back
Fore
SplineSet
320 128 m 1,0,-1
 320 224 l 1,1,-1
 256 256 l 1,2,-1
 256 128 l 1,3,-1
 320 128 l 1,0,-1
192 320 m 1,4,-1
 192 448 l 1,5,-1
 128 448 l 1,6,-1
 128 352 l 1,7,-1
 192 320 l 1,8,-1
 192 320 l 1,4,-1
192 0 m 1,9,-1
 192 64 l 1,10,-1
 32 64 l 1,11,-1
 32 128 l 1,12,-1
 192 128 l 1,13,-1
 192 256 l 1,14,-1
 64 320 l 1,15,-1
 32 384 l 1,16,-1
 32 448 l 1,17,-1
 64 480 l 1,18,-1
 128 512 l 1,19,-1
 192 512 l 1,20,-1
 192 576 l 1,21,-1
 256 576 l 1,22,-1
 256 512 l 1,23,-1
 416 512 l 1,24,-1
 416 448 l 1,25,-1
 256 448 l 1,26,-1
 256 320 l 1,27,-1
 384 256 l 1,28,-1
 416 192 l 1,29,-1
 416 128 l 1,30,-1
 384 96 l 1,31,-1
 320 64 l 1,32,-1
 256 64 l 1,33,-1
 256 0 l 1,34,-1
 192 0 l 1,9,-1
EndSplineSet
Validated: 5
EndChar

StartChar: percent
Encoding: 37 37 8
Width: 576
Flags: W
LayerCount: 2
Back
Fore
SplineSet
320 0 m 1,0,-1
 256 64 l 1,1,-1
 256 128 l 1,2,-1
 320 192 l 1,3,-1
 384 192 l 1,4,-1
 448 128 l 1,5,-1
 448 64 l 1,6,-1
 384 0 l 1,7,-1
 320 0 l 1,0,-1
64 384 m 1,8,-1
 0 448 l 1,9,-1
 0 512 l 1,10,-1
 64 576 l 1,11,-1
 128 576 l 1,12,-1
 192 512 l 1,13,-1
 192 448 l 1,14,-1
 128 384 l 1,15,-1
 64 384 l 1,8,-1
0 0 m 1,16,-1
 288 576 l 1,17,-1
 384 576 l 1,18,-1
 384 512 l 1,19,-1
 128 0 l 1,20,-1
 0 0 l 1,16,-1
EndSplineSet
Validated: 1
EndChar

StartChar: ampersand
Encoding: 38 38 9
Width: 768
Flags: W
LayerCount: 2
Back
Fore
SplineSet
256 64 m 1,0,-1
 384 192 l 1,1,-1
 256 320 l 1,2,-1
 192 288 l 1,3,-1
 160 256 l 1,4,-1
 128 192 l 1,5,-1
 128 128 l 1,6,-1
 149 85 l 1,7,-1
 192 64 l 1,8,-1
 256 64 l 1,0,-1
256 384 m 1,9,-1
 384 448 l 1,10,-1
 362 490 l 1,11,-1
 320 512 l 1,12,-1
 256 512 l 1,13,-1
 213 490 l 1,14,-1
 192 448 l 1,15,-1
 213 405 l 1,16,-1
 256 384 l 1,17,-1
 256 384 l 1,9,-1
128 0 m 1,18,-1
 64 32 l 1,19,-1
 32 64 l 1,20,-1
 0 128 l 1,21,-1
 0 192 l 1,22,-1
 32 256 l 1,23,-1
 64 288 l 1,24,-1
 128 320 l 1,25,-1
 160 384 l 1,26,-1
 96 448 l 1,27,-1
 96 512 l 1,28,-1
 128 544 l 1,29,-1
 192 576 l 1,30,-1
 384 576 l 1,31,-1
 448 544 l 1,32,-1
 480 512 l 1,33,-1
 480 448 l 1,34,-1
 448 416 l 1,35,-1
 341 362 l 1,36,-1
 448 256 l 1,37,-1
 512 320 l 1,38,-1
 640 320 l 1,39,-1
 640 288 l 1,40,-1
 528 176 l 1,41,-1
 640 64 l 1,42,-1
 640 0 l 1,43,-1
 576 0 l 1,44,-1
 464 112 l 1,45,-1
 352 0 l 1,46,-1
 128 0 l 1,18,-1
EndSplineSet
Validated: 5
EndChar

StartChar: quotesingle
Encoding: 39 39 10
Width: 256
Flags: W
LayerCount: 2
Back
Fore
SplineSet
0 384 m 1,0,-1
 0 576 l 1,1,-1
 128 576 l 1,2,-1
 128 384 l 1,3,-1
 0 384 l 1,0,-1
EndSplineSet
Validated: 1
EndChar

StartChar: parenleft
Encoding: 40 40 11
Width: 384
Flags: W
LayerCount: 2
Back
Fore
SplineSet
160 -64 m 1,0,-1
 96 0 l 1,1,-1
 0 192 l 1,2,-1
 0 384 l 1,3,-1
 96 576 l 1,4,-1
 160 640 l 1,5,-1
 256 640 l 1,6,-1
 192 576 l 1,7,-1
 128 448 l 1,8,-1
 128 128 l 1,9,-1
 192 0 l 1,10,-1
 256 -64 l 1,11,-1
 160 -64 l 1,0,-1
EndSplineSet
Validated: 1
EndChar

StartChar: parenright
Encoding: 41 41 12
Width: 384
Flags: W
LayerCount: 2
Back
Fore
SplineSet
0 -64 m 1,0,-1
 64 0 l 1,1,-1
 128 128 l 1,2,-1
 128 448 l 1,3,-1
 64 576 l 1,4,-1
 0 640 l 1,5,-1
 96 640 l 1,6,-1
 160 576 l 1,7,-1
 256 384 l 1,8,-1
 256 192 l 1,9,-1
 160 0 l 1,10,-1
 96 -64 l 1,11,-1
 0 -64 l 1,0,-1
EndSplineSet
Validated: 1
EndChar

StartChar: asterisk
Encoding: 42 42 13
Width: 640
Flags: W
LayerCount: 2
Back
Fore
SplineSet
0 192 m 1,0,-1
 0 256 l 1,1,-1
 128 384 l 1,2,-1
 0 512 l 1,3,-1
 0 576 l 1,4,-1
 64 576 l 1,5,-1
 192 448 l 1,6,-1
 192 576 l 1,7,-1
 320 576 l 1,8,-1
 320 448 l 1,9,-1
 448 576 l 1,10,-1
 512 576 l 1,11,-1
 512 512 l 1,12,-1
 384 384 l 1,13,-1
 512 256 l 1,14,-1
 512 192 l 1,15,-1
 448 192 l 1,16,-1
 320 320 l 1,17,-1
 320 192 l 1,18,-1
 192 192 l 1,19,-1
 192 320 l 1,20,-1
 64 192 l 1,21,-1
 0 192 l 1,0,-1
EndSplineSet
Validated: 1
EndChar

StartChar: plus
Encoding: 43 43 14
Width: 640
Flags: W
LayerCount: 2
Back
Fore
SplineSet
192 128 m 1,0,-1
 192 320 l 1,1,-1
 0 320 l 1,2,-1
 0 384 l 1,3,-1
 192 384 l 1,4,-1
 192 576 l 1,5,-1
 320 576 l 1,6,-1
 320 384 l 1,7,-1
 512 384 l 1,8,-1
 512 320 l 1,9,-1
 320 320 l 1,10,-1
 320 128 l 1,11,-1
 192 128 l 1,0,-1
EndSplineSet
Validated: 1
EndChar

StartChar: comma
Encoding: 44 44 15
Width: 320
Flags: W
LayerCount: 2
Back
Fore
SplineSet
32 -64 m 1,0,-1
 64 0 l 1,1,-1
 64 128 l 1,2,-1
 192 128 l 1,3,-1
 192 0 l 1,4,-1
 128 -64 l 1,5,-1
 32 -64 l 1,0,-1
EndSplineSet
Validated: 1
EndChar

StartChar: hyphen
Encoding: 45 45 16
Width: 512
Flags: W
LayerCount: 2
Back
Fore
SplineSet
64 320 m 1,0,-1
 64 384 l 1,1,-1
 384 384 l 1,2,-1
 384 320 l 1,3,-1
 64 320 l 1,0,-1
EndSplineSet
Validated: 1
EndChar

StartChar: period
Encoding: 46 46 17
Width: 256
Flags: W
LayerCount: 2
Back
Fore
SplineSet
0 0 m 1,0,-1
 0 128 l 1,1,-1
 128 128 l 1,2,-1
 128 0 l 1,3,-1
 0 0 l 1,0,-1
EndSplineSet
Validated: 1
EndChar

StartChar: slash
Encoding: 47 47 18
Width: 512
Flags: W
LayerCount: 2
Back
Fore
SplineSet
0 0 m 1,0,-1
 288 576 l 1,1,-1
 384 576 l 1,2,-1
 384 512 l 1,3,-1
 128 0 l 1,4,-1
 0 0 l 1,0,-1
EndSplineSet
Validated: 1
EndChar

StartChar: zero
Encoding: 48 48 19
Width: 640
Flags: W
LayerCount: 2
Back
Fore
SplineSet
256 64 m 1,0,-1
 298 85 l 1,1,-1
 320 128 l 1,2,-1
 320 448 l 1,3,-1
 298 490 l 1,4,-1
 256 512 l 1,5,-1
 213 490 l 1,6,-1
 192 448 l 1,7,-1
 192 128 l 1,8,-1
 213 85 l 1,9,-1
 256 64 l 1,10,-1
 256 64 l 1,0,-1
128 0 m 1,11,-1
 64 32 l 1,12,-1
 32 64 l 1,13,-1
 0 128 l 1,14,-1
 0 448 l 1,15,-1
 32 512 l 1,16,-1
 64 544 l 1,17,-1
 128 576 l 1,18,-1
 384 576 l 1,19,-1
 448 544 l 1,20,-1
 480 512 l 1,21,-1
 512 448 l 1,22,-1
 512 128 l 1,23,-1
 480 64 l 1,24,-1
 448 32 l 1,25,-1
 384 0 l 1,26,-1
 128 0 l 1,11,-1
EndSplineSet
Validated: 5
EndChar

StartChar: one
Encoding: 49 49 20
Width: 448
Flags: W
LayerCount: 2
Back
Fore
SplineSet
128 0 m 1,0,-1
 128 448 l 1,1,-1
 0 448 l 1,2,-1
 0 480 l 1,3,-1
 192 576 l 1,4,-1
 320 576 l 1,5,-1
 320 0 l 1,6,-1
 128 0 l 1,0,-1
EndSplineSet
Validated: 1
EndChar

StartChar: two
Encoding: 50 50 21
Width: 640
Flags: W
LayerCount: 2
Back
Fore
SplineSet
0 0 m 1,0,-1
 0 32 l 1,1,-1
 288 320 l 1,2,-1
 320 384 l 1,3,-1
 320 448 l 1,4,-1
 298 490 l 1,5,-1
 256 512 l 1,6,-1
 192 512 l 1,7,-1
 149 490 l 1,8,-1
 128 448 l 1,9,-1
 0 448 l 1,10,-1
 32 512 l 1,11,-1
 64 544 l 1,12,-1
 128 576 l 1,13,-1
 384 576 l 1,14,-1
 448 544 l 1,15,-1
 480 512 l 1,16,-1
 512 448 l 1,17,-1
 512 384 l 1,18,-1
 480 320 l 1,19,-1
 288 128 l 1,20,-1
 256 64 l 1,21,-1
 512 64 l 1,22,-1
 512 0 l 1,23,-1
 0 0 l 1,0,-1
EndSplineSet
Validated: 1
EndChar

StartChar: three
Encoding: 51 51 22
Width: 640
Flags: W
LayerCount: 2
Back
Fore
SplineSet
128 0 m 1,0,-1
 64 32 l 1,1,-1
 32 64 l 1,2,-1
 0 128 l 1,3,-1
 128 128 l 1,4,-1
 149 85 l 1,5,-1
 192 64 l 1,6,-1
 256 64 l 1,7,-1
 298 85 l 1,8,-1
 320 128 l 1,9,-1
 320 192 l 1,10,-1
 256 256 l 1,11,-1
 128 256 l 1,12,-1
 128 320 l 1,13,-1
 256 320 l 1,14,-1
 320 384 l 1,15,-1
 320 448 l 1,16,-1
 298 490 l 1,17,-1
 256 512 l 1,18,-1
 192 512 l 1,19,-1
 149 490 l 1,20,-1
 128 448 l 1,21,-1
 0 448 l 1,22,-1
 32 512 l 1,23,-1
 64 544 l 1,24,-1
 128 576 l 1,25,-1
 384 576 l 1,26,-1
 448 544 l 1,27,-1
 480 512 l 1,28,-1
 512 448 l 1,29,-1
 512 384 l 1,30,-1
 464 288 l 1,31,-1
 512 192 l 1,32,-1
 512 128 l 1,33,-1
 480 64 l 1,34,-1
 448 32 l 1,35,-1
 384 0 l 1,36,-1
 128 0 l 1,0,-1
EndSplineSet
Validated: 1
EndChar

StartChar: four
Encoding: 52 52 23
Width: 640
Flags: W
LayerCount: 2
Back
Fore
SplineSet
256 256 m 1,0,-1
 256 448 l 1,1,-1
 64 256 l 1,2,-1
 256 256 l 1,0,-1
256 0 m 1,3,-1
 256 192 l 1,4,-1
 0 192 l 1,5,-1
 0 288 l 1,6,-1
 288 576 l 1,7,-1
 448 576 l 1,8,-1
 448 256 l 1,9,-1
 512 256 l 1,10,-1
 512 192 l 1,11,-1
 448 192 l 1,12,-1
 448 0 l 1,13,-1
 256 0 l 1,3,-1
EndSplineSet
Validated: 1
EndChar

StartChar: five
Encoding: 53 53 24
Width: 576
Flags: W
LayerCount: 2
Back
Fore
SplineSet
64 0 m 1,0,-1
 0 32 l 1,1,-1
 -32 64 l 1,2,-1
 -64 128 l 1,3,-1
 32 128 l 1,4,-1
 64 96 l 1,5,-1
 128 64 l 1,6,-1
 192 64 l 1,7,-1
 234 85 l 1,8,-1
 256 128 l 1,9,-1
 256 256 l 1,10,-1
 234 298 l 1,11,-1
 192 320 l 1,12,-1
 -64 320 l 1,13,-1
 -64 576 l 1,14,-1
 384 576 l 1,15,-1
 384 512 l 1,16,-1
 64 512 l 1,17,-1
 64 384 l 1,18,-1
 256 384 l 1,19,-1
 384 320 l 1,20,-1
 448 192 l 1,21,-1
 384 64 l 1,22,-1
 256 0 l 1,23,-1
 64 0 l 1,0,-1
EndSplineSet
Validated: 1
EndChar

StartChar: six
Encoding: 54 54 25
Width: 640
Flags: W
LayerCount: 2
Back
Fore
SplineSet
256 64 m 1,0,-1
 298 85 l 1,1,-1
 320 128 l 1,2,-1
 320 256 l 1,3,-1
 298 298 l 1,4,-1
 256 320 l 1,5,-1
 192 320 l 1,6,-1
 192 128 l 1,7,-1
 213 85 l 1,8,-1
 256 64 l 1,9,-1
 256 64 l 1,0,-1
128 0 m 1,10,-1
 64 32 l 1,11,-1
 32 64 l 1,12,-1
 0 128 l 1,13,-1
 0 384 l 1,14,-1
 64 512 l 1,15,-1
 192 576 l 1,16,-1
 448 576 l 1,17,-1
 448 512 l 1,18,-1
 256 512 l 1,19,-1
 213 490 l 1,20,-1
 192 448 l 1,21,-1
 192 384 l 1,22,-1
 384 384 l 1,23,-1
 448 352 l 1,24,-1
 480 320 l 1,25,-1
 512 256 l 1,26,-1
 512 128 l 1,27,-1
 480 64 l 1,28,-1
 448 32 l 1,29,-1
 384 0 l 1,30,-1
 128 0 l 1,10,-1
EndSplineSet
Validated: 5
EndChar

StartChar: seven
Encoding: 55 55 26
Width: 640
Flags: W
LayerCount: 2
Back
Fore
SplineSet
64 0 m 1,0,-1
 320 512 l 1,1,-1
 0 512 l 1,2,-1
 0 576 l 1,3,-1
 512 576 l 1,4,-1
 512 512 l 1,5,-1
 256 0 l 1,6,-1
 64 0 l 1,0,-1
EndSplineSet
Validated: 1
EndChar

StartChar: eight
Encoding: 56 56 27
Width: 640
Flags: W
LayerCount: 2
Back
Fore
SplineSet
256 64 m 1,0,-1
 298 85 l 1,1,-1
 320 128 l 1,2,-1
 320 192 l 1,3,-1
 298 234 l 1,4,-1
 256 256 l 1,5,-1
 213 234 l 1,6,-1
 192 192 l 1,7,-1
 192 128 l 1,8,-1
 213 85 l 1,9,-1
 256 64 l 1,10,-1
 256 64 l 1,0,-1
256 320 m 1,11,-1
 298 341 l 1,12,-1
 320 384 l 1,13,-1
 320 448 l 1,14,-1
 298 490 l 1,15,-1
 256 512 l 1,16,-1
 213 490 l 1,17,-1
 192 448 l 1,18,-1
 192 384 l 1,19,-1
 213 341 l 1,20,-1
 256 320 l 1,21,-1
 256 320 l 1,11,-1
128 0 m 1,22,-1
 64 32 l 1,23,-1
 32 64 l 1,24,-1
 0 128 l 1,25,-1
 0 192 l 1,26,-1
 32 256 l 1,27,-1
 64 288 l 1,28,-1
 32 320 l 1,29,-1
 0 384 l 1,30,-1
 0 448 l 1,31,-1
 32 512 l 1,32,-1
 64 544 l 1,33,-1
 128 576 l 1,34,-1
 384 576 l 1,35,-1
 448 544 l 1,36,-1
 480 512 l 1,37,-1
 512 448 l 1,38,-1
 512 384 l 1,39,-1
 480 320 l 1,40,-1
 448 288 l 1,41,-1
 480 256 l 1,42,-1
 512 192 l 1,43,-1
 512 128 l 1,44,-1
 480 64 l 1,45,-1
 448 32 l 1,46,-1
 384 0 l 1,47,-1
 128 0 l 1,22,-1
EndSplineSet
Validated: 5
EndChar

StartChar: nine
Encoding: 57 57 28
Width: 640
Flags: W
LayerCount: 2
Back
Fore
SplineSet
320 256 m 1,0,-1
 320 448 l 1,1,-1
 298 490 l 1,2,-1
 256 512 l 1,3,-1
 213 490 l 1,4,-1
 192 448 l 1,5,-1
 192 320 l 1,6,-1
 213 277 l 1,7,-1
 256 256 l 1,8,-1
 320 256 l 1,0,-1
64 0 m 1,9,-1
 64 64 l 1,10,-1
 256 64 l 1,11,-1
 298 85 l 1,12,-1
 320 128 l 1,13,-1
 320 192 l 1,14,-1
 128 192 l 1,15,-1
 64 224 l 1,16,-1
 32 256 l 1,17,-1
 0 320 l 1,18,-1
 0 448 l 1,19,-1
 32 512 l 1,20,-1
 64 544 l 1,21,-1
 128 576 l 1,22,-1
 384 576 l 1,23,-1
 448 544 l 1,24,-1
 480 512 l 1,25,-1
 512 448 l 1,26,-1
 512 192 l 1,27,-1
 448 64 l 1,28,-1
 320 0 l 1,29,-1
 64 0 l 1,9,-1
EndSplineSet
Validated: 1
EndChar

StartChar: colon
Encoding: 58 58 29
Width: 256
Flags: W
LayerCount: 2
Back
Fore
SplineSet
0 0 m 1,0,-1
 0 128 l 1,1,-1
 128 128 l 1,2,-1
 128 0 l 1,3,-1
 0 0 l 1,0,-1
0 256 m 1,4,-1
 0 384 l 1,5,-1
 128 384 l 1,6,-1
 128 256 l 1,7,-1
 0 256 l 1,4,-1
EndSplineSet
Validated: 1
EndChar

StartChar: semicolon
Encoding: 59 59 30
Width: 320
Flags: W
LayerCount: 2
Back
Fore
SplineSet
32 -64 m 1,0,-1
 64 0 l 1,1,-1
 64 128 l 1,2,-1
 192 128 l 1,3,-1
 192 0 l 1,4,-1
 128 -64 l 1,5,-1
 32 -64 l 1,0,-1
64 256 m 1,6,-1
 64 384 l 1,7,-1
 192 384 l 1,8,-1
 192 256 l 1,9,-1
 64 256 l 1,6,-1
EndSplineSet
Validated: 1
EndChar

StartChar: less
Encoding: 60 60 31
Width: 448
Flags: W
LayerCount: 2
Back
Fore
SplineSet
192 64 m 1,0,-1
 0 256 l 1,1,-1
 0 288 l 1,2,-1
 224 512 l 1,3,-1
 320 512 l 1,4,-1
 128 320 l 1,5,-1
 320 128 l 1,6,-1
 320 64 l 1,7,-1
 192 64 l 1,0,-1
EndSplineSet
Validated: 1
EndChar

StartChar: equal
Encoding: 61 61 32
Width: 512
Flags: W
LayerCount: 2
Back
Fore
SplineSet
64 192 m 1,0,-1
 64 256 l 1,1,-1
 384 256 l 1,2,-1
 384 192 l 1,3,-1
 64 192 l 1,0,-1
64 320 m 1,4,-1
 64 384 l 1,5,-1
 384 384 l 1,6,-1
 384 320 l 1,7,-1
 64 320 l 1,4,-1
EndSplineSet
Validated: 1
EndChar

StartChar: greater
Encoding: 62 62 33
Width: 448
Flags: W
LayerCount: 2
Back
Fore
SplineSet
0 64 m 1,0,-1
 192 256 l 1,1,-1
 0 448 l 1,2,-1
 0 512 l 1,3,-1
 128 512 l 1,4,-1
 320 320 l 1,5,-1
 320 288 l 1,6,-1
 96 64 l 1,7,-1
 0 64 l 1,0,-1
EndSplineSet
Validated: 1
EndChar

StartChar: question
Encoding: 63 63 34
Width: 576
Flags: W
LayerCount: 2
Back
Fore
SplineSet
128 0 m 1,0,-1
 128 128 l 1,1,-1
 256 128 l 1,2,-1
 256 0 l 1,3,-1
 128 0 l 1,0,-1
128 192 m 1,4,-1
 128 256 l 1,5,-1
 192 320 l 1,6,-1
 256 320 l 1,7,-1
 298 341 l 1,8,-1
 320 384 l 1,9,-1
 320 416 l 1,10,-1
 256 480 l 1,11,-1
 192 512 l 1,12,-1
 128 512 l 1,13,-1
 85 490 l 1,14,-1
 64 448 l 1,15,-1
 0 448 l 1,16,-1
 0 512 l 1,17,-1
 64 576 l 1,18,-1
 320 576 l 1,19,-1
 384 544 l 1,20,-1
 416 512 l 1,21,-1
 448 448 l 1,22,-1
 448 384 l 1,23,-1
 416 320 l 1,24,-1
 384 288 l 1,25,-1
 320 256 l 1,26,-1
 256 256 l 1,27,-1
 256 192 l 1,28,-1
 128 192 l 1,4,-1
EndSplineSet
Validated: 1
EndChar

StartChar: at
Encoding: 64 64 35
Width: 640
Flags: W
LayerCount: 2
Back
Fore
SplineSet
256 128 m 1,0,-1
 320 192 l 1,1,-1
 320 256 l 1,2,-1
 192 256 l 1,3,-1
 192 128 l 1,4,-1
 256 128 l 1,0,-1
192 -64 m 1,5,-1
 128 -32 l 1,6,-1
 32 64 l 1,7,-1
 0 128 l 1,8,-1
 0 256 l 1,9,-1
 32 320 l 1,10,-1
 128 416 l 1,11,-1
 192 448 l 1,12,-1
 320 448 l 1,13,-1
 384 416 l 1,14,-1
 480 320 l 1,15,-1
 512 256 l 1,16,-1
 512 96 l 1,17,-1
 480 64 l 1,18,-1
 416 64 l 1,19,-1
 352 128 l 1,20,-1
 320 128 l 1,21,-1
 256 64 l 1,22,-1
 192 64 l 1,23,-1
 128 128 l 1,24,-1
 128 256 l 1,25,-1
 192 320 l 1,26,-1
 320 320 l 1,27,-1
 384 256 l 1,28,-1
 384 128 l 1,29,-1
 448 128 l 1,30,-1
 448 256 l 1,31,-1
 320 384 l 1,32,-1
 192 384 l 1,33,-1
 64 256 l 1,34,-1
 64 128 l 1,35,-1
 192 0 l 1,36,-1
 384 0 l 1,37,-1
 384 -64 l 1,38,-1
 192 -64 l 1,5,-1
EndSplineSet
Validated: 1
EndChar

StartChar: A
Encoding: 65 65 36
Width: 768
Flags: W
LayerCount: 2
Back
Fore
SplineSet
384 192 m 1,0,-1
 288 384 l 1,1,-1
 192 192 l 1,2,-1
 384 192 l 1,0,-1
0 0 m 1,3,-1
 0 64 l 1,4,-1
 256 576 l 1,5,-1
 352 576 l 1,6,-1
 608 64 l 1,7,-1
 608 0 l 1,8,-1
 480 0 l 1,9,-1
 416 128 l 1,10,-1
 160 128 l 1,11,-1
 96 0 l 1,12,-1
 0 0 l 1,3,-1
EndSplineSet
Validated: 1
EndChar

StartChar: B
Encoding: 66 66 37
Width: 704
Flags: W
LayerCount: 2
Back
Fore
SplineSet
384 64 m 1,0,-1
 416 128 l 1,1,-1
 416 192 l 1,2,-1
 384 224 l 1,3,-1
 320 256 l 1,4,-1
 192 256 l 1,5,-1
 192 64 l 1,6,-1
 384 64 l 1,0,-1
320 320 m 1,7,-1
 352 384 l 1,8,-1
 352 448 l 1,9,-1
 320 512 l 1,10,-1
 192 512 l 1,11,-1
 192 320 l 1,12,-1
 320 320 l 1,7,-1
0 0 m 1,13,-1
 0 576 l 1,14,-1
 384 576 l 1,15,-1
 448 544 l 1,16,-1
 480 512 l 1,17,-1
 512 448 l 1,18,-1
 448 320 l 1,19,-1
 512 288 l 1,20,-1
 544 256 l 1,21,-1
 576 192 l 1,22,-1
 576 128 l 1,23,-1
 544 64 l 1,24,-1
 512 32 l 1,25,-1
 448 0 l 1,26,-1
 0 0 l 1,13,-1
EndSplineSet
Validated: 1
EndChar

StartChar: C
Encoding: 67 67 38
Width: 640
Flags: W
LayerCount: 2
Back
Fore
SplineSet
256 0 m 1,0,-1
 128 64 l 1,1,-1
 64 128 l 1,2,-1
 0 256 l 1,3,-1
 0 320 l 1,4,-1
 64 448 l 1,5,-1
 128 512 l 1,6,-1
 256 576 l 1,7,-1
 512 576 l 1,8,-1
 512 512 l 1,9,-1
 320 512 l 1,10,-1
 256 480 l 1,11,-1
 224 448 l 1,12,-1
 192 384 l 1,13,-1
 192 192 l 1,14,-1
 224 128 l 1,15,-1
 256 96 l 1,16,-1
 320 64 l 1,17,-1
 512 64 l 1,18,-1
 512 0 l 1,19,-1
 256 0 l 1,0,-1
EndSplineSet
Validated: 1
EndChar

StartChar: D
Encoding: 68 68 39
Width: 704
Flags: W
LayerCount: 2
Back
Fore
SplineSet
256 64 m 1,0,-1
 320 96 l 1,1,-1
 352 128 l 1,2,-1
 384 192 l 1,3,-1
 384 384 l 1,4,-1
 352 448 l 1,5,-1
 320 480 l 1,6,-1
 256 512 l 1,7,-1
 192 512 l 1,8,-1
 192 64 l 1,9,-1
 256 64 l 1,0,-1
0 0 m 1,10,-1
 0 576 l 1,11,-1
 320 576 l 1,12,-1
 448 512 l 1,13,-1
 512 448 l 1,14,-1
 576 320 l 1,15,-1
 576 256 l 1,16,-1
 512 128 l 1,17,-1
 448 64 l 1,18,-1
 320 0 l 1,19,-1
 0 0 l 1,10,-1
EndSplineSet
Validated: 1
EndChar

StartChar: E
Encoding: 69 69 40
Width: 576
Flags: W
LayerCount: 2
Back
Fore
SplineSet
0 0 m 1,0,-1
 0 576 l 1,1,-1
 448 576 l 1,2,-1
 448 512 l 1,3,-1
 192 512 l 1,4,-1
 192 320 l 1,5,-1
 384 320 l 1,6,-1
 384 256 l 1,7,-1
 192 256 l 1,8,-1
 192 64 l 1,9,-1
 448 64 l 1,10,-1
 448 0 l 1,11,-1
 0 0 l 1,0,-1
EndSplineSet
Validated: 1
EndChar

StartChar: F
Encoding: 70 70 41
Width: 576
Flags: W
LayerCount: 2
Back
Fore
SplineSet
0 0 m 1,0,-1
 0 576 l 1,1,-1
 448 576 l 1,2,-1
 448 512 l 1,3,-1
 192 512 l 1,4,-1
 192 320 l 1,5,-1
 384 320 l 1,6,-1
 384 256 l 1,7,-1
 192 256 l 1,8,-1
 192 0 l 1,9,-1
 0 0 l 1,0,-1
EndSplineSet
Validated: 1
EndChar

StartChar: G
Encoding: 71 71 42
Width: 768
Flags: W
LayerCount: 2
Back
Fore
SplineSet
256 0 m 1,0,-1
 128 64 l 1,1,-1
 64 128 l 1,2,-1
 0 256 l 1,3,-1
 0 320 l 1,4,-1
 64 448 l 1,5,-1
 128 512 l 1,6,-1
 256 576 l 1,7,-1
 576 576 l 1,8,-1
 576 512 l 1,9,-1
 320 512 l 1,10,-1
 256 480 l 1,11,-1
 224 448 l 1,12,-1
 192 384 l 1,13,-1
 192 192 l 1,14,-1
 224 128 l 1,15,-1
 256 96 l 1,16,-1
 320 64 l 1,17,-1
 448 64 l 1,18,-1
 448 256 l 1,19,-1
 384 256 l 1,20,-1
 384 320 l 1,21,-1
 640 320 l 1,22,-1
 640 0 l 1,23,-1
 256 0 l 1,0,-1
EndSplineSet
Validated: 1
EndChar

StartChar: H
Encoding: 72 72 43
Width: 704
Flags: W
LayerCount: 2
Back
Fore
SplineSet
0 0 m 1,0,-1
 0 576 l 1,1,-1
 192 576 l 1,2,-1
 192 320 l 1,3,-1
 384 320 l 1,4,-1
 384 576 l 1,5,-1
 576 576 l 1,6,-1
 576 0 l 1,7,-1
 384 0 l 1,8,-1
 384 256 l 1,9,-1
 192 256 l 1,10,-1
 192 0 l 1,11,-1
 0 0 l 1,0,-1
EndSplineSet
Validated: 1
EndChar

StartChar: I
Encoding: 73 73 44
Width: 320
Flags: W
LayerCount: 2
Back
Fore
SplineSet
0 0 m 1,0,-1
 0 576 l 1,1,-1
 192 576 l 1,2,-1
 192 0 l 1,3,-1
 0 0 l 1,0,-1
EndSplineSet
Validated: 1
EndChar

StartChar: J
Encoding: 74 74 45
Width: 512
Flags: W
LayerCount: 2
Back
Fore
SplineSet
0 0 m 1,0,-1
 0 64 l 1,1,-1
 128 64 l 1,2,-1
 170 85 l 1,3,-1
 192 128 l 1,4,-1
 192 576 l 1,5,-1
 384 576 l 1,6,-1
 384 128 l 1,7,-1
 352 64 l 1,8,-1
 320 32 l 1,9,-1
 256 0 l 1,10,-1
 0 0 l 1,0,-1
EndSplineSet
Validated: 1
EndChar

StartChar: K
Encoding: 75 75 46
Width: 704
Flags: W
LayerCount: 2
Back
Fore
SplineSet
0 0 m 1,0,-1
 0 576 l 1,1,-1
 192 576 l 1,2,-1
 192 352 l 1,3,-1
 416 576 l 1,4,-1
 512 576 l 1,5,-1
 512 544 l 1,6,-1
 288 320 l 1,7,-1
 576 32 l 1,8,-1
 576 0 l 1,9,-1
 416 0 l 1,10,-1
 192 224 l 1,11,-1
 192 0 l 1,12,-1
 0 0 l 1,0,-1
EndSplineSet
Validated: 1
EndChar

StartChar: L
Encoding: 76 76 47
Width: 576
Flags: W
LayerCount: 2
Back
Fore
SplineSet
0 0 m 1,0,-1
 0 576 l 1,1,-1
 192 576 l 1,2,-1
 192 64 l 1,3,-1
 448 64 l 1,4,-1
 448 0 l 1,5,-1
 0 0 l 1,0,-1
EndSplineSet
Validated: 1
EndChar

StartChar: M
Encoding: 77 77 48
Width: 896
Flags: W
LayerCount: 2
Back
Fore
SplineSet
0 0 m 1,0,-1
 0 576 l 1,1,-1
 192 576 l 1,2,-1
 384 192 l 1,3,-1
 576 576 l 1,4,-1
 768 576 l 1,5,-1
 768 0 l 1,6,-1
 576 0 l 1,7,-1
 576 384 l 1,8,-1
 384 0 l 1,9,-1
 288 0 l 1,10,-1
 64 448 l 1,11,-1
 64 0 l 1,12,-1
 0 0 l 1,0,-1
EndSplineSet
Validated: 1
EndChar

StartChar: N
Encoding: 78 78 49
Width: 640
Flags: W
LayerCount: 2
Back
Fore
SplineSet
0 0 m 1,0,-1
 0 576 l 1,1,-1
 96 576 l 1,2,-1
 448 224 l 1,3,-1
 448 576 l 1,4,-1
 512 576 l 1,5,-1
 512 0 l 1,6,-1
 416 0 l 1,7,-1
 64 352 l 1,8,-1
 64 0 l 1,9,-1
 0 0 l 1,0,-1
EndSplineSet
Validated: 1
EndChar

StartChar: O
Encoding: 79 79 50
Width: 768
Flags: W
LayerCount: 2
Back
Fore
SplineSet
320 64 m 1,0,-1
 384 96 l 1,1,-1
 416 128 l 1,2,-1
 448 192 l 1,3,-1
 448 384 l 1,4,-1
 416 448 l 1,5,-1
 384 480 l 1,6,-1
 320 512 l 1,7,-1
 256 480 l 1,8,-1
 224 448 l 1,9,-1
 192 384 l 1,10,-1
 192 192 l 1,11,-1
 224 128 l 1,12,-1
 256 96 l 1,13,-1
 320 64 l 1,14,-1
 320 64 l 1,0,-1
256 0 m 1,15,-1
 128 64 l 1,16,-1
 64 128 l 1,17,-1
 0 256 l 1,18,-1
 0 320 l 1,19,-1
 64 448 l 1,20,-1
 128 512 l 1,21,-1
 256 576 l 1,22,-1
 384 576 l 1,23,-1
 512 512 l 1,24,-1
 576 448 l 1,25,-1
 640 320 l 1,26,-1
 640 256 l 1,27,-1
 576 128 l 1,28,-1
 512 64 l 1,29,-1
 384 0 l 1,30,-1
 256 0 l 1,15,-1
EndSplineSet
Validated: 5
EndChar

StartChar: P
Encoding: 80 80 51
Width: 640
Flags: W
LayerCount: 2
Back
Fore
SplineSet
256 256 m 1,0,-1
 320 288 l 1,1,-1
 352 320 l 1,2,-1
 384 384 l 1,3,-1
 352 448 l 1,4,-1
 320 480 l 1,5,-1
 256 512 l 1,6,-1
 192 512 l 1,7,-1
 192 256 l 1,8,-1
 256 256 l 1,0,-1
0 0 m 1,9,-1
 0 576 l 1,10,-1
 320 576 l 1,11,-1
 448 512 l 1,12,-1
 512 384 l 1,13,-1
 448 256 l 1,14,-1
 320 192 l 1,15,-1
 192 192 l 1,16,-1
 192 0 l 1,17,-1
 0 0 l 1,9,-1
EndSplineSet
Validated: 1
EndChar

StartChar: Q
Encoding: 81 81 52
Width: 768
Flags: W
LayerCount: 2
Back
Fore
SplineSet
320 64 m 1,0,-1
 384 96 l 1,1,-1
 416 128 l 1,2,-1
 448 192 l 1,3,-1
 448 384 l 1,4,-1
 416 448 l 1,5,-1
 384 480 l 1,6,-1
 320 512 l 1,7,-1
 256 480 l 1,8,-1
 224 448 l 1,9,-1
 192 384 l 1,10,-1
 192 192 l 1,11,-1
 224 128 l 1,12,-1
 256 96 l 1,13,-1
 320 64 l 1,14,-1
 320 64 l 1,0,-1
512 -128 m 1,15,-1
 384 -64 l 1,16,-1
 320 0 l 1,17,-1
 256 0 l 1,18,-1
 128 64 l 1,19,-1
 64 128 l 1,20,-1
 0 256 l 1,21,-1
 0 320 l 1,22,-1
 64 448 l 1,23,-1
 128 512 l 1,24,-1
 256 576 l 1,25,-1
 384 576 l 1,26,-1
 512 512 l 1,27,-1
 576 448 l 1,28,-1
 640 320 l 1,29,-1
 640 256 l 1,30,-1
 576 128 l 1,31,-1
 512 64 l 1,32,-1
 460 38 l 1,33,-1
 512 -64 l 1,34,-1
 640 -64 l 1,35,-1
 640 -128 l 1,36,-1
 512 -128 l 1,15,-1
EndSplineSet
Validated: 5
EndChar

StartChar: R
Encoding: 82 82 53
Width: 704
Flags: W
LayerCount: 2
Back
Fore
SplineSet
256 256 m 1,0,-1
 320 288 l 1,1,-1
 352 320 l 1,2,-1
 384 384 l 1,3,-1
 352 448 l 1,4,-1
 320 480 l 1,5,-1
 256 512 l 1,6,-1
 192 512 l 1,7,-1
 192 256 l 1,8,-1
 256 256 l 1,0,-1
0 0 m 1,9,-1
 0 576 l 1,10,-1
 320 576 l 1,11,-1
 448 512 l 1,12,-1
 512 384 l 1,13,-1
 448 256 l 1,14,-1
 405 234 l 1,15,-1
 576 64 l 1,16,-1
 576 0 l 1,17,-1
 448 0 l 1,18,-1
 256 192 l 1,19,-1
 192 192 l 1,20,-1
 192 0 l 1,21,-1
 0 0 l 1,9,-1
EndSplineSet
Validated: 1
EndChar

StartChar: S
Encoding: 83 83 54
Width: 576
Flags: W
LayerCount: 2
Back
Fore
SplineSet
0 0 m 1,0,-1
 0 64 l 1,1,-1
 192 64 l 1,2,-1
 256 96 l 1,3,-1
 256 192 l 1,4,-1
 64 288 l 1,5,-1
 32 320 l 1,6,-1
 0 384 l 1,7,-1
 0 448 l 1,8,-1
 32 512 l 1,9,-1
 64 544 l 1,10,-1
 128 576 l 1,11,-1
 448 576 l 1,12,-1
 448 512 l 1,13,-1
 256 512 l 1,14,-1
 192 480 l 1,15,-1
 192 384 l 1,16,-1
 384 288 l 1,17,-1
 416 256 l 1,18,-1
 448 192 l 1,19,-1
 448 128 l 1,20,-1
 416 64 l 1,21,-1
 384 32 l 1,22,-1
 320 0 l 1,23,-1
 0 0 l 1,0,-1
EndSplineSet
Validated: 1
EndChar

StartChar: T
Encoding: 84 84 55
Width: 704
Flags: W
LayerCount: 2
Back
Fore
SplineSet
192 0 m 1,0,-1
 192 512 l 1,1,-1
 0 512 l 1,2,-1
 0 576 l 1,3,-1
 576 576 l 1,4,-1
 576 512 l 1,5,-1
 384 512 l 1,6,-1
 384 0 l 1,7,-1
 192 0 l 1,0,-1
EndSplineSet
Validated: 1
EndChar

StartChar: U
Encoding: 85 85 56
Width: 640
Flags: W
LayerCount: 2
Back
Fore
SplineSet
192 0 m 1,0,-1
 128 32 l 1,1,-1
 32 128 l 1,2,-1
 0 192 l 1,3,-1
 0 576 l 1,4,-1
 192 576 l 1,5,-1
 192 128 l 1,6,-1
 256 64 l 1,7,-1
 320 64 l 1,8,-1
 384 128 l 1,9,-1
 384 576 l 1,10,-1
 512 576 l 1,11,-1
 512 192 l 1,12,-1
 480 128 l 1,13,-1
 384 32 l 1,14,-1
 320 0 l 1,15,-1
 192 0 l 1,0,-1
EndSplineSet
Validated: 1
EndChar

StartChar: V
Encoding: 86 86 57
Width: 768
Flags: W
LayerCount: 2
Back
Fore
SplineSet
224 0 m 1,0,-1
 0 448 l 1,1,-1
 0 576 l 1,2,-1
 128 576 l 1,3,-1
 352 128 l 1,4,-1
 576 576 l 1,5,-1
 640 576 l 1,6,-1
 640 512 l 1,7,-1
 384 0 l 1,8,-1
 224 0 l 1,0,-1
EndSplineSet
Validated: 1
EndChar

StartChar: W
Encoding: 87 87 58
Width: 1088
Flags: W
LayerCount: 2
Back
Fore
SplineSet
256 0 m 1,0,-1
 0 512 l 1,1,-1
 0 576 l 1,2,-1
 160 576 l 1,3,-1
 336 224 l 1,4,-1
 512 576 l 1,5,-1
 688 224 l 1,6,-1
 864 576 l 1,7,-1
 960 576 l 1,8,-1
 960 512 l 1,9,-1
 704 0 l 1,10,-1
 608 0 l 1,11,-1
 480 256 l 1,12,-1
 352 0 l 1,13,-1
 256 0 l 1,0,-1
EndSplineSet
Validated: 1
EndChar

StartChar: X
Encoding: 88 88 59
Width: 704
Flags: W
LayerCount: 2
Back
Fore
SplineSet
0 0 m 1,0,-1
 0 64 l 1,1,-1
 208 272 l 1,2,-1
 0 480 l 1,3,-1
 0 576 l 1,4,-1
 96 576 l 1,5,-1
 304 368 l 1,6,-1
 512 576 l 1,7,-1
 576 576 l 1,8,-1
 576 512 l 1,9,-1
 384 320 l 1,10,-1
 383 320 l 1,11,-1
 352 288 l 1,12,-1
 576 64 l 1,13,-1
 576 0 l 1,14,-1
 416 0 l 1,15,-1
 240 176 l 1,16,-1
 64 0 l 1,17,-1
 0 0 l 1,0,-1
EndSplineSet
Validated: 1
EndChar

StartChar: Y
Encoding: 89 89 60
Width: 704
Flags: W
LayerCount: 2
Back
Fore
SplineSet
192 0 m 1,0,-1
 192 192 l 1,1,-1
 0 576 l 1,2,-1
 160 576 l 1,3,-1
 320 256 l 1,4,-1
 480 576 l 1,5,-1
 576 576 l 1,6,-1
 384 192 l 1,7,-1
 384 0 l 1,8,-1
 192 0 l 1,0,-1
EndSplineSet
Validated: 1
EndChar

StartChar: Z
Encoding: 90 90 61
Width: 576
Flags: W
LayerCount: 2
Back
Fore
SplineSet
0 0 m 1,0,-1
 256 512 l 1,1,-1
 0 512 l 1,2,-1
 0 576 l 1,3,-1
 448 576 l 1,4,-1
 192 64 l 1,5,-1
 448 64 l 1,6,-1
 448 0 l 1,7,-1
 0 0 l 1,0,-1
EndSplineSet
Validated: 1
EndChar

StartChar: bracketleft
Encoding: 91 91 62
Width: 384
Flags: W
LayerCount: 2
Back
Fore
SplineSet
0 -64 m 1,0,-1
 0 640 l 1,1,-1
 256 640 l 1,2,-1
 256 576 l 1,3,-1
 128 576 l 1,4,-1
 128 0 l 1,5,-1
 256 0 l 1,6,-1
 256 -64 l 1,7,-1
 0 -64 l 1,0,-1
EndSplineSet
Validated: 1
EndChar

StartChar: backslash
Encoding: 92 92 63
Width: 512
Flags: W
LayerCount: 2
Back
Fore
SplineSet
256 0 m 1,0,-1
 0 512 l 1,1,-1
 0 576 l 1,2,-1
 96 576 l 1,3,-1
 384 0 l 1,4,-1
 256 0 l 1,0,-1
EndSplineSet
Validated: 1
EndChar

StartChar: bracketright
Encoding: 93 93 64
Width: 384
Flags: W
LayerCount: 2
Back
Fore
SplineSet
0 -64 m 1,0,-1
 0 0 l 1,1,-1
 128 0 l 1,2,-1
 128 576 l 1,3,-1
 0 576 l 1,4,-1
 0 640 l 1,5,-1
 256 640 l 1,6,-1
 256 -64 l 1,7,-1
 0 -64 l 1,0,-1
EndSplineSet
Validated: 1
EndChar

StartChar: asciicircum
Encoding: 94 94 65
Width: 512
Flags: W
LayerCount: 2
Back
Fore
SplineSet
0 448 m 1,0,-1
 0 480 l 1,1,-1
 160 640 l 1,2,-1
 224 640 l 1,3,-1
 384 480 l 1,4,-1
 384 448 l 1,5,-1
 320 448 l 1,6,-1
 192 576 l 1,7,-1
 64 448 l 1,8,-1
 0 448 l 1,0,-1
EndSplineSet
Validated: 1
EndChar

StartChar: underscore
Encoding: 95 95 66
Width: 512
Flags: W
LayerCount: 2
Back
Fore
SplineSet
0 -64 m 1,0,-1
 0 0 l 1,1,-1
 384 0 l 1,2,-1
 384 -64 l 1,3,-1
 0 -64 l 1,0,-1
EndSplineSet
Validated: 1
EndChar

StartChar: grave
Encoding: 96 96 67
Width: 448
Flags: W
LayerCount: 2
Back
Fore
SplineSet
256 448 m 1,0,-1
 0 576 l 1,1,-1
 0 640 l 1,2,-1
 320 480 l 1,3,-1
 320 448 l 1,4,-1
 256 448 l 1,0,-1
EndSplineSet
Validated: 1
EndChar

StartChar: a
Encoding: 97 97 68
Width: 640
Flags: W
LayerCount: 2
Back
Fore
SplineSet
288 64 m 1,0,-1
 320 96 l 1,1,-1
 320 192 l 1,2,-1
 224 192 l 1,3,-1
 192 160 l 1,4,-1
 192 96 l 1,5,-1
 224 64 l 1,6,-1
 288 64 l 1,0,-1
128 0 m 1,7,-1
 64 32 l 1,8,-1
 32 64 l 1,9,-1
 0 128 l 1,10,-1
 32 192 l 1,11,-1
 64 224 l 1,12,-1
 128 256 l 1,13,-1
 320 256 l 1,14,-1
 320 320 l 1,15,-1
 256 384 l 1,16,-1
 64 384 l 1,17,-1
 64 448 l 1,18,-1
 320 448 l 1,19,-1
 448 384 l 1,20,-1
 512 256 l 1,21,-1
 512 0 l 1,22,-1
 352 0 l 1,23,-1
 320 32 l 1,24,-1
 256 0 l 1,25,-1
 128 0 l 1,7,-1
EndSplineSet
Validated: 1
EndChar

StartChar: b
Encoding: 98 98 69
Width: 640
Flags: W
LayerCount: 2
Back
Fore
SplineSet
256 64 m 1,0,-1
 320 128 l 1,1,-1
 320 320 l 1,2,-1
 256 352 l 1,3,-1
 192 320 l 1,4,-1
 192 64 l 1,5,-1
 256 64 l 1,0,-1
0 0 m 1,6,-1
 0 576 l 1,7,-1
 192 576 l 1,8,-1
 192 384 l 1,9,-1
 320 448 l 1,10,-1
 384 448 l 1,11,-1
 448 416 l 1,12,-1
 480 384 l 1,13,-1
 512 320 l 1,14,-1
 512 192 l 1,15,-1
 480 128 l 1,16,-1
 448 96 l 1,17,-1
 256 0 l 1,18,-1
 0 0 l 1,6,-1
EndSplineSet
Validated: 1
EndChar

StartChar: c
Encoding: 99 99 70
Width: 576
Flags: W
LayerCount: 2
Back
Fore
SplineSet
192 0 m 1,0,-1
 64 64 l 1,1,-1
 0 192 l 1,2,-1
 0 256 l 1,3,-1
 64 384 l 1,4,-1
 192 448 l 1,5,-1
 448 448 l 1,6,-1
 448 384 l 1,7,-1
 320 384 l 1,8,-1
 256 352 l 1,9,-1
 224 320 l 1,10,-1
 192 256 l 1,11,-1
 192 192 l 1,12,-1
 224 128 l 1,13,-1
 256 96 l 1,14,-1
 320 64 l 1,15,-1
 448 64 l 1,16,-1
 448 0 l 1,17,-1
 192 0 l 1,0,-1
EndSplineSet
Validated: 1
EndChar

StartChar: d
Encoding: 100 100 71
Width: 640
Flags: W
LayerCount: 2
Back
Fore
SplineSet
256 96 m 1,0,-1
 320 128 l 1,1,-1
 320 384 l 1,2,-1
 256 384 l 1,3,-1
 192 320 l 1,4,-1
 192 128 l 1,5,-1
 256 96 l 1,6,-1
 256 96 l 1,0,-1
128 0 m 1,7,-1
 64 32 l 1,8,-1
 32 64 l 1,9,-1
 0 128 l 1,10,-1
 0 256 l 1,11,-1
 32 320 l 1,12,-1
 64 352 l 1,13,-1
 256 448 l 1,14,-1
 320 448 l 1,15,-1
 320 576 l 1,16,-1
 512 576 l 1,17,-1
 512 0 l 1,18,-1
 352 0 l 1,19,-1
 320 64 l 1,20,-1
 192 0 l 1,21,-1
 128 0 l 1,7,-1
EndSplineSet
Validated: 5
EndChar

StartChar: e
Encoding: 101 101 72
Width: 640
Flags: W
LayerCount: 2
Back
Fore
SplineSet
384 256 m 1,0,-1
 384 320 l 1,1,-1
 362 362 l 1,2,-1
 320 384 l 1,3,-1
 256 384 l 1,4,-1
 213 362 l 1,5,-1
 192 320 l 1,6,-1
 192 256 l 1,7,-1
 384 256 l 1,0,-1
192 0 m 1,8,-1
 64 64 l 1,9,-1
 0 192 l 1,10,-1
 0 256 l 1,11,-1
 64 384 l 1,12,-1
 192 448 l 1,13,-1
 384 448 l 1,14,-1
 448 416 l 1,15,-1
 480 384 l 1,16,-1
 512 320 l 1,17,-1
 512 192 l 1,18,-1
 192 192 l 1,19,-1
 224 128 l 1,20,-1
 256 96 l 1,21,-1
 320 64 l 1,22,-1
 448 64 l 1,23,-1
 448 0 l 1,24,-1
 192 0 l 1,8,-1
EndSplineSet
Validated: 1
EndChar

StartChar: f
Encoding: 102 102 73
Width: 512
Flags: W
LayerCount: 2
Back
Fore
SplineSet
64 0 m 1,0,-1
 64 384 l 1,1,-1
 0 384 l 1,2,-1
 0 448 l 1,3,-1
 64 448 l 1,4,-1
 128 512 l 1,5,-1
 256 576 l 1,6,-1
 384 576 l 1,7,-1
 384 512 l 1,8,-1
 320 512 l 1,9,-1
 277 490 l 1,10,-1
 256 448 l 1,11,-1
 384 448 l 1,12,-1
 384 384 l 1,13,-1
 256 384 l 1,14,-1
 256 0 l 1,15,-1
 64 0 l 1,0,-1
EndSplineSet
Validated: 1
EndChar

StartChar: g
Encoding: 103 103 74
Width: 640
Flags: W
LayerCount: 2
Back
Fore
SplineSet
256 96 m 1,0,-1
 320 128 l 1,1,-1
 320 384 l 1,2,-1
 256 384 l 1,3,-1
 192 320 l 1,4,-1
 192 128 l 1,5,-1
 256 96 l 1,6,-1
 256 96 l 1,0,-1
64 -192 m 1,7,-1
 64 -128 l 1,8,-1
 256 -128 l 1,9,-1
 298 -106 l 1,10,-1
 320 -64 l 1,11,-1
 320 64 l 1,12,-1
 192 0 l 1,13,-1
 128 0 l 1,14,-1
 64 32 l 1,15,-1
 32 64 l 1,16,-1
 0 128 l 1,17,-1
 0 256 l 1,18,-1
 32 320 l 1,19,-1
 64 352 l 1,20,-1
 256 448 l 1,21,-1
 512 448 l 1,22,-1
 512 0 l 1,23,-1
 448 -128 l 1,24,-1
 320 -192 l 1,25,-1
 64 -192 l 1,7,-1
EndSplineSet
Validated: 5
EndChar

StartChar: h
Encoding: 104 104 75
Width: 640
Flags: W
LayerCount: 2
Back
Fore
SplineSet
0 0 m 1,0,-1
 0 576 l 1,1,-1
 192 576 l 1,2,-1
 192 384 l 1,3,-1
 320 448 l 1,4,-1
 384 448 l 1,5,-1
 448 416 l 1,6,-1
 480 384 l 1,7,-1
 512 320 l 1,8,-1
 512 0 l 1,9,-1
 320 0 l 1,10,-1
 320 320 l 1,11,-1
 256 352 l 1,12,-1
 192 320 l 1,13,-1
 192 0 l 1,14,-1
 0 0 l 1,0,-1
EndSplineSet
Validated: 1
EndChar

StartChar: i
Encoding: 105 105 76
Width: 320
Flags: W
LayerCount: 2
Back
Fore
SplineSet
0 0 m 1,0,-1
 0 448 l 1,1,-1
 192 448 l 1,2,-1
 192 0 l 1,3,-1
 0 0 l 1,0,-1
0 512 m 1,4,-1
 0 576 l 1,5,-1
 192 576 l 1,6,-1
 192 512 l 1,7,-1
 0 512 l 1,4,-1
EndSplineSet
Validated: 1
EndChar

StartChar: j
Encoding: 106 106 77
Width: 448
Flags: W
LayerCount: 2
Back
Fore
SplineSet
0 -128 m 1,0,-1
 0 -64 l 1,1,-1
 64 -64 l 1,2,-1
 106 -42 l 1,3,-1
 128 0 l 1,4,-1
 128 448 l 1,5,-1
 320 448 l 1,6,-1
 320 64 l 1,7,-1
 256 -64 l 1,8,-1
 128 -128 l 1,9,-1
 0 -128 l 1,0,-1
128 512 m 1,10,-1
 128 576 l 1,11,-1
 320 576 l 1,12,-1
 320 512 l 1,13,-1
 128 512 l 1,10,-1
EndSplineSet
Validated: 1
EndChar

StartChar: k
Encoding: 107 107 78
Width: 640
Flags: W
LayerCount: 2
Back
Fore
SplineSet
0 0 m 1,0,-1
 0 576 l 1,1,-1
 192 576 l 1,2,-1
 192 288 l 1,3,-1
 352 448 l 1,4,-1
 480 448 l 1,5,-1
 480 416 l 1,6,-1
 320 256 l 1,7,-1
 512 64 l 1,8,-1
 512 0 l 1,9,-1
 384 0 l 1,10,-1
 192 192 l 1,11,-1
 192 0 l 1,12,-1
 0 0 l 1,0,-1
EndSplineSet
Validated: 1
EndChar

StartChar: l
Encoding: 108 108 79
Width: 320
Flags: W
LayerCount: 2
Back
Fore
SplineSet
0 0 m 1,0,-1
 0 576 l 1,1,-1
 192 576 l 1,2,-1
 192 0 l 1,3,-1
 0 0 l 1,0,-1
EndSplineSet
Validated: 1
EndChar

StartChar: m
Encoding: 109 109 80
Width: 960
Flags: W
LayerCount: 2
Back
Fore
SplineSet
0 0 m 1,0,-1
 0 448 l 1,1,-1
 192 448 l 1,2,-1
 192 384 l 1,3,-1
 320 448 l 1,4,-1
 384 448 l 1,5,-1
 448 384 l 1,6,-1
 576 448 l 1,7,-1
 704 448 l 1,8,-1
 768 416 l 1,9,-1
 800 384 l 1,10,-1
 832 320 l 1,11,-1
 832 0 l 1,12,-1
 640 0 l 1,13,-1
 640 320 l 1,14,-1
 614 371 l 1,15,-1
 512 320 l 1,16,-1
 512 0 l 1,17,-1
 320 0 l 1,18,-1
 320 320 l 1,19,-1
 294 371 l 1,20,-1
 192 320 l 1,21,-1
 192 0 l 1,22,-1
 0 0 l 1,0,-1
EndSplineSet
Validated: 1
EndChar

StartChar: n
Encoding: 110 110 81
Width: 640
Flags: W
LayerCount: 2
Back
Fore
SplineSet
0 0 m 1,0,-1
 0 448 l 1,1,-1
 192 448 l 1,2,-1
 192 384 l 1,3,-1
 320 448 l 1,4,-1
 384 448 l 1,5,-1
 448 416 l 1,6,-1
 480 384 l 1,7,-1
 512 320 l 1,8,-1
 512 0 l 1,9,-1
 320 0 l 1,10,-1
 320 320 l 1,11,-1
 256 352 l 1,12,-1
 192 320 l 1,13,-1
 192 0 l 1,14,-1
 0 0 l 1,0,-1
EndSplineSet
Validated: 1
EndChar

StartChar: o
Encoding: 111 111 82
Width: 704
Flags: W
LayerCount: 2
Back
Fore
SplineSet
320 64 m 1,0,-1
 384 128 l 1,1,-1
 384 320 l 1,2,-1
 320 384 l 1,3,-1
 256 384 l 1,4,-1
 192 320 l 1,5,-1
 192 128 l 1,6,-1
 256 64 l 1,7,-1
 320 64 l 1,0,-1
192 0 m 1,8,-1
 64 64 l 1,9,-1
 0 192 l 1,10,-1
 0 256 l 1,11,-1
 64 384 l 1,12,-1
 192 448 l 1,13,-1
 384 448 l 1,14,-1
 512 384 l 1,15,-1
 576 256 l 1,16,-1
 576 192 l 1,17,-1
 512 64 l 1,18,-1
 384 0 l 1,19,-1
 192 0 l 1,8,-1
EndSplineSet
Validated: 1
EndChar

StartChar: p
Encoding: 112 112 83
Width: 640
Flags: W
LayerCount: 2
Back
Fore
SplineSet
256 64 m 1,0,-1
 320 128 l 1,1,-1
 320 320 l 1,2,-1
 256 352 l 1,3,-1
 192 320 l 1,4,-1
 192 64 l 1,5,-1
 256 64 l 1,0,-1
0 -192 m 1,6,-1
 0 448 l 1,7,-1
 192 448 l 1,8,-1
 192 384 l 1,9,-1
 320 448 l 1,10,-1
 384 448 l 1,11,-1
 448 416 l 1,12,-1
 480 384 l 1,13,-1
 512 320 l 1,14,-1
 512 192 l 1,15,-1
 480 128 l 1,16,-1
 448 96 l 1,17,-1
 256 0 l 1,18,-1
 192 0 l 1,19,-1
 192 -192 l 1,20,-1
 0 -192 l 1,6,-1
EndSplineSet
Validated: 1
EndChar

StartChar: q
Encoding: 113 113 84
Width: 640
Flags: W
LayerCount: 2
Back
Fore
SplineSet
256 96 m 1,0,-1
 320 128 l 1,1,-1
 320 384 l 1,2,-1
 256 384 l 1,3,-1
 192 320 l 1,4,-1
 192 128 l 1,5,-1
 256 96 l 1,6,-1
 256 96 l 1,0,-1
320 -192 m 1,7,-1
 320 64 l 1,8,-1
 192 0 l 1,9,-1
 128 0 l 1,10,-1
 64 32 l 1,11,-1
 32 64 l 1,12,-1
 0 128 l 1,13,-1
 0 256 l 1,14,-1
 32 320 l 1,15,-1
 64 352 l 1,16,-1
 256 448 l 1,17,-1
 512 448 l 1,18,-1
 512 -192 l 1,19,-1
 320 -192 l 1,7,-1
EndSplineSet
Validated: 5
EndChar

StartChar: r
Encoding: 114 114 85
Width: 640
Flags: W
LayerCount: 2
Back
Fore
SplineSet
0 0 m 1,0,-1
 0 448 l 1,1,-1
 192 448 l 1,2,-1
 192 384 l 1,3,-1
 320 448 l 1,4,-1
 384 448 l 1,5,-1
 448 416 l 1,6,-1
 480 384 l 1,7,-1
 512 320 l 1,8,-1
 320 320 l 1,9,-1
 256 352 l 1,10,-1
 192 320 l 1,11,-1
 192 0 l 1,12,-1
 0 0 l 1,0,-1
EndSplineSet
Validated: 1
EndChar

StartChar: s
Encoding: 115 115 86
Width: 576
Flags: W
LayerCount: 2
Back
Fore
SplineSet
0 0 m 1,0,-1
 0 64 l 1,1,-1
 224 64 l 1,2,-1
 266 85 l 1,3,-1
 288 128 l 1,4,-1
 266 170 l 1,5,-1
 224 192 l 1,6,-1
 128 192 l 1,7,-1
 64 224 l 1,8,-1
 32 256 l 1,9,-1
 0 320 l 1,10,-1
 32 384 l 1,11,-1
 64 416 l 1,12,-1
 128 448 l 1,13,-1
 448 448 l 1,14,-1
 448 384 l 1,15,-1
 224 384 l 1,16,-1
 181 362 l 1,17,-1
 160 320 l 1,18,-1
 181 277 l 1,19,-1
 224 256 l 1,20,-1
 320 256 l 1,21,-1
 384 224 l 1,22,-1
 416 192 l 1,23,-1
 448 128 l 1,24,-1
 416 64 l 1,25,-1
 384 32 l 1,26,-1
 320 0 l 1,27,-1
 0 0 l 1,0,-1
EndSplineSet
Validated: 1
EndChar

StartChar: t
Encoding: 116 116 87
Width: 512
Flags: W
LayerCount: 2
Back
Fore
SplineSet
256 0 m 1,0,-1
 128 64 l 1,1,-1
 64 192 l 1,2,-1
 64 384 l 1,3,-1
 0 384 l 1,4,-1
 0 448 l 1,5,-1
 64 448 l 1,6,-1
 64 576 l 1,7,-1
 256 576 l 1,8,-1
 256 448 l 1,9,-1
 384 448 l 1,10,-1
 384 384 l 1,11,-1
 256 384 l 1,12,-1
 256 128 l 1,13,-1
 277 85 l 1,14,-1
 320 64 l 1,15,-1
 384 64 l 1,16,-1
 384 0 l 1,17,-1
 256 0 l 1,0,-1
EndSplineSet
Validated: 1
EndChar

StartChar: u
Encoding: 117 117 88
Width: 640
Flags: W
LayerCount: 2
Back
Fore
SplineSet
128 0 m 1,0,-1
 64 32 l 1,1,-1
 32 64 l 1,2,-1
 0 128 l 1,3,-1
 0 448 l 1,4,-1
 192 448 l 1,5,-1
 192 128 l 1,6,-1
 256 96 l 1,7,-1
 320 128 l 1,8,-1
 320 448 l 1,9,-1
 512 448 l 1,10,-1
 512 0 l 1,11,-1
 320 0 l 1,12,-1
 320 64 l 1,13,-1
 192 0 l 1,14,-1
 128 0 l 1,0,-1
EndSplineSet
Validated: 1
EndChar

StartChar: v
Encoding: 118 118 89
Width: 704
Flags: W
LayerCount: 2
Back
Fore
SplineSet
224 0 m 1,0,-1
 0 448 l 1,1,-1
 160 448 l 1,2,-1
 320 128 l 1,3,-1
 480 448 l 1,4,-1
 576 448 l 1,5,-1
 352 0 l 1,6,-1
 224 0 l 1,0,-1
EndSplineSet
Validated: 1
EndChar

StartChar: w
Encoding: 119 119 90
Width: 896
Flags: W
LayerCount: 2
Back
Fore
SplineSet
224 0 m 1,0,-1
 0 448 l 1,1,-1
 160 448 l 1,2,-1
 304 160 l 1,3,-1
 352 256 l 1,4,-1
 256 448 l 1,5,-1
 416 448 l 1,6,-1
 544 192 l 1,7,-1
 672 448 l 1,8,-1
 768 448 l 1,9,-1
 544 0 l 1,10,-1
 480 0 l 1,11,-1
 384 192 l 1,12,-1
 288 0 l 1,13,-1
 224 0 l 1,0,-1
EndSplineSet
Validated: 1
EndChar

StartChar: x
Encoding: 120 120 91
Width: 704
Flags: W
LayerCount: 2
Back
Fore
SplineSet
0 0 m 1,0,-1
 0 96 l 1,1,-1
 144 240 l 1,2,-1
 0 384 l 1,3,-1
 0 448 l 1,4,-1
 160 448 l 1,5,-1
 304 304 l 1,6,-1
 448 448 l 1,7,-1
 544 448 l 1,8,-1
 544 416 l 1,9,-1
 368 240 l 1,10,-1
 512 96 l 1,11,-1
 512 0 l 1,12,-1
 384 0 l 1,13,-1
 208 176 l 1,14,-1
 32 0 l 1,15,-1
 0 0 l 1,0,-1
EndSplineSet
Validated: 1
EndChar

StartChar: y
Encoding: 121 121 92
Width: 640
Flags: W
LayerCount: 2
Back
Fore
SplineSet
0 -192 m 1,0,-1
 0 -128 l 1,1,-1
 160 -128 l 1,2,-1
 192 -64 l 1,3,-1
 192 0 l 1,4,-1
 0 384 l 1,5,-1
 0 448 l 1,6,-1
 128 448 l 1,7,-1
 288 128 l 1,8,-1
 448 448 l 1,9,-1
 512 448 l 1,10,-1
 512 384 l 1,11,-1
 256 -128 l 1,12,-1
 192 -192 l 1,13,-1
 0 -192 l 1,0,-1
EndSplineSet
Validated: 1
EndChar

StartChar: z
Encoding: 122 122 93
Width: 512
Flags: W
LayerCount: 2
Back
Fore
SplineSet
0 0 m 1,0,-1
 0 128 l 1,1,-1
 256 384 l 1,2,-1
 0 384 l 1,3,-1
 0 448 l 1,4,-1
 384 448 l 1,5,-1
 384 352 l 1,6,-1
 160 128 l 1,7,-1
 160 64 l 1,8,-1
 384 64 l 1,9,-1
 384 0 l 1,10,-1
 0 0 l 1,0,-1
EndSplineSet
Validated: 1
EndChar

StartChar: braceleft
Encoding: 123 123 94
Width: 384
Flags: W
LayerCount: 2
Back
Fore
SplineSet
192 -64 m 1,0,-1
 128 -32 l 1,1,-1
 96 0 l 1,2,-1
 64 64 l 1,3,-1
 64 192 l 1,4,-1
 42 234 l 1,5,-1
 0 256 l 1,6,-1
 0 320 l 1,7,-1
 42 341 l 1,8,-1
 64 384 l 1,9,-1
 64 512 l 1,10,-1
 96 576 l 1,11,-1
 128 608 l 1,12,-1
 192 640 l 1,13,-1
 256 640 l 1,14,-1
 256 576 l 1,15,-1
 224 576 l 1,16,-1
 192 544 l 1,17,-1
 192 384 l 1,18,-1
 128 320 l 1,19,-1
 127 320 l 1,20,-1
 96 288 l 1,21,-1
 192 192 l 1,22,-1
 192 32 l 1,23,-1
 224 0 l 1,24,-1
 256 0 l 1,25,-1
 256 -64 l 1,26,-1
 192 -64 l 1,0,-1
EndSplineSet
Validated: 1
EndChar

StartChar: bar
Encoding: 124 124 95
Width: 256
Flags: W
LayerCount: 2
Back
Fore
SplineSet
0 -64 m 1,0,-1
 0 640 l 1,1,-1
 128 640 l 1,2,-1
 128 -64 l 1,3,-1
 0 -64 l 1,0,-1
EndSplineSet
Validated: 1
EndChar

StartChar: braceright
Encoding: 125 125 96
Width: 384
Flags: W
LayerCount: 2
Back
Fore
SplineSet
0 -64 m 1,0,-1
 0 0 l 1,1,-1
 32 0 l 1,2,-1
 64 32 l 1,3,-1
 64 192 l 1,4,-1
 160 288 l 1,5,-1
 128 320 l 1,6,-1
 128 320 l 1,7,-1
 64 384 l 1,8,-1
 64 544 l 1,9,-1
 32 576 l 1,10,-1
 0 576 l 1,11,-1
 0 640 l 1,12,-1
 64 640 l 1,13,-1
 128 608 l 1,14,-1
 160 576 l 1,15,-1
 192 512 l 1,16,-1
 192 384 l 1,17,-1
 213 341 l 1,18,-1
 256 320 l 1,19,-1
 256 256 l 1,20,-1
 213 234 l 1,21,-1
 192 192 l 1,22,-1
 192 64 l 1,23,-1
 160 0 l 1,24,-1
 128 -32 l 1,25,-1
 64 -64 l 1,26,-1
 0 -64 l 1,0,-1
EndSplineSet
Validated: 1
EndChar

StartChar: asciitilde
Encoding: 126 126 97
Width: 512
Flags: W
LayerCount: 2
Back
Fore
SplineSet
0 448 m 1,0,-1
 0 480 l 1,1,-1
 64 544 l 1,2,-1
 128 576 l 1,3,-1
 256 512 l 1,4,-1
 320 576 l 1,5,-1
 384 576 l 1,6,-1
 384 544 l 1,7,-1
 320 480 l 1,8,-1
 256 448 l 1,9,-1
 128 512 l 1,10,-1
 64 448 l 1,11,-1
 0 448 l 1,0,-1
EndSplineSet
Validated: 1
EndChar

StartChar: exclamdown
Encoding: 161 161 98
Width: 256
Flags: W
LayerCount: 2
Back
Fore
SplineSet
0 0 m 1,0,-1
 0 448 l 1,1,-1
 128 448 l 1,2,-1
 128 0 l 1,3,-1
 0 0 l 1,0,-1
0 512 m 1,4,-1
 0 576 l 1,5,-1
 128 576 l 1,6,-1
 128 512 l 1,7,-1
 0 512 l 1,4,-1
EndSplineSet
Validated: 1
EndChar

StartChar: cent
Encoding: 162 162 99
Width: 576
Flags: W
LayerCount: 2
Back
Fore
SplineSet
192 -128 m 1,0,-1
 192 0 l 1,1,-1
 64 64 l 1,2,-1
 0 192 l 1,3,-1
 0 256 l 1,4,-1
 64 384 l 1,5,-1
 192 448 l 1,6,-1
 192 576 l 1,7,-1
 320 576 l 1,8,-1
 320 448 l 1,9,-1
 448 448 l 1,10,-1
 448 384 l 1,11,-1
 320 384 l 1,12,-1
 256 352 l 1,13,-1
 224 320 l 1,14,-1
 192 256 l 1,15,-1
 192 192 l 1,16,-1
 224 128 l 1,17,-1
 256 96 l 1,18,-1
 320 64 l 1,19,-1
 448 64 l 1,20,-1
 448 0 l 1,21,-1
 320 0 l 1,22,-1
 320 -128 l 1,23,-1
 192 -128 l 1,0,-1
EndSplineSet
Validated: 1
EndChar

StartChar: sterling
Encoding: 163 163 100
Width: 704
Flags: W
LayerCount: 2
Back
Fore
SplineSet
0 0 m 1,0,-1
 0 64 l 1,1,-1
 64 128 l 1,2,-1
 64 256 l 1,3,-1
 0 256 l 1,4,-1
 0 320 l 1,5,-1
 64 320 l 1,6,-1
 64 448 l 1,7,-1
 128 512 l 1,8,-1
 256 576 l 1,9,-1
 384 576 l 1,10,-1
 448 544 l 1,11,-1
 512 480 l 1,12,-1
 512 448 l 1,13,-1
 448 448 l 1,14,-1
 320 512 l 1,15,-1
 277 490 l 1,16,-1
 256 448 l 1,17,-1
 256 320 l 1,18,-1
 448 320 l 1,19,-1
 448 256 l 1,20,-1
 256 256 l 1,21,-1
 256 128 l 1,22,-1
 384 64 l 1,23,-1
 576 64 l 1,24,-1
 576 0 l 1,25,-1
 320 0 l 1,26,-1
 192 64 l 1,27,-1
 128 64 l 1,28,-1
 64 32 l 1,29,-1
 32 0 l 1,30,-1
 0 0 l 1,0,-1
EndSplineSet
Validated: 1
EndChar

StartChar: currency
Encoding: 164 164 101
Width: 640
Flags: W
LayerCount: 2
Back
Fore
SplineSet
352 256 m 1,0,-1
 352 448 l 1,1,-1
 160 448 l 1,2,-1
 160 256 l 1,3,-1
 352 256 l 1,0,-1
0 128 m 1,4,-1
 0 160 l 1,5,-1
 64 224 l 1,6,-1
 64 480 l 1,7,-1
 0 544 l 1,8,-1
 0 576 l 1,9,-1
 96 576 l 1,10,-1
 160 512 l 1,11,-1
 352 512 l 1,12,-1
 416 576 l 1,13,-1
 512 576 l 1,14,-1
 512 544 l 1,15,-1
 448 480 l 1,16,-1
 448 224 l 1,17,-1
 512 160 l 1,18,-1
 512 128 l 1,19,-1
 416 128 l 1,20,-1
 352 192 l 1,21,-1
 160 192 l 1,22,-1
 96 128 l 1,23,-1
 0 128 l 1,4,-1
EndSplineSet
Validated: 1
EndChar

StartChar: yen
Encoding: 165 165 102
Width: 704
Flags: W
LayerCount: 2
Back
Fore
SplineSet
192 0 m 1,0,-1
 192 64 l 1,1,-1
 64 64 l 1,2,-1
 64 128 l 1,3,-1
 192 128 l 1,4,-1
 192 192 l 1,5,-1
 64 192 l 1,6,-1
 64 256 l 1,7,-1
 160 256 l 1,8,-1
 0 576 l 1,9,-1
 160 576 l 1,10,-1
 320 256 l 1,11,-1
 480 576 l 1,12,-1
 576 576 l 1,13,-1
 416 256 l 1,14,-1
 512 256 l 1,15,-1
 512 192 l 1,16,-1
 384 192 l 1,17,-1
 384 128 l 1,18,-1
 512 128 l 1,19,-1
 512 64 l 1,20,-1
 384 64 l 1,21,-1
 384 0 l 1,22,-1
 192 0 l 1,0,-1
EndSplineSet
Validated: 1
EndChar

StartChar: brokenbar
Encoding: 166 166 103
Width: 256
Flags: W
LayerCount: 2
Back
Fore
SplineSet
0 -64 m 1,0,-1
 0 256 l 1,1,-1
 128 256 l 1,2,-1
 128 -64 l 1,3,-1
 0 -64 l 1,0,-1
0 320 m 1,4,-1
 0 640 l 1,5,-1
 128 640 l 1,6,-1
 128 320 l 1,7,-1
 0 320 l 1,4,-1
EndSplineSet
Validated: 1
EndChar

StartChar: section
Encoding: 167 167 104
Width: 512
Flags: W
LayerCount: 2
Back
Fore
SplineSet
320 64 m 1,0,-1
 320 192 l 1,1,-1
 128 384 l 1,2,-1
 64 384 l 1,3,-1
 64 320 l 1,4,-1
 320 64 l 1,5,-1
 320 64 l 1,0,-1
128 -128 m 1,6,-1
 64 -96 l 1,7,-1
 32 -64 l 1,8,-1
 0 0 l 1,9,-1
 96 0 l 1,10,-1
 128 -64 l 1,11,-1
 192 -64 l 1,12,-1
 234 -42 l 1,13,-1
 256 0 l 1,14,-1
 256 32 l 1,15,-1
 0 288 l 1,16,-1
 0 352 l 1,17,-1
 32 384 l 1,18,-1
 0 416 l 1,19,-1
 0 512 l 1,20,-1
 32 576 l 1,21,-1
 64 608 l 1,22,-1
 128 640 l 1,23,-1
 256 640 l 1,24,-1
 320 608 l 1,25,-1
 352 576 l 1,26,-1
 384 512 l 1,27,-1
 288 512 l 1,28,-1
 256 576 l 1,29,-1
 192 576 l 1,30,-1
 149 554 l 1,31,-1
 128 512 l 1,32,-1
 128 480 l 1,33,-1
 384 224 l 1,34,-1
 384 96 l 1,35,-1
 352 64 l 1,36,-1
 384 32 l 1,37,-1
 384 0 l 1,38,-1
 352 -64 l 1,39,-1
 320 -96 l 1,40,-1
 256 -128 l 1,41,-1
 128 -128 l 1,6,-1
EndSplineSet
Validated: 5
EndChar

StartChar: dieresis
Encoding: 168 168 105
Width: 448
Flags: W
LayerCount: 2
Back
Fore
SplineSet
0 512 m 1,0,-1
 0 640 l 1,1,-1
 128 640 l 1,2,-1
 128 512 l 1,3,-1
 0 512 l 1,0,-1
192 512 m 1,4,-1
 192 640 l 1,5,-1
 320 640 l 1,6,-1
 320 512 l 1,7,-1
 192 512 l 1,4,-1
EndSplineSet
Validated: 1
EndChar

StartChar: copyright
Encoding: 169 169 106
Width: 640
Flags: W
LayerCount: 2
Back
Fore
SplineSet
192 128 m 1,0,-1
 128 192 l 1,1,-1
 128 384 l 1,2,-1
 192 448 l 1,3,-1
 320 448 l 1,4,-1
 384 384 l 1,5,-1
 192 384 l 1,6,-1
 192 192 l 1,7,-1
 384 192 l 1,8,-1
 320 128 l 1,9,-1
 192 128 l 1,0,-1
320 64 m 1,10,-1
 448 192 l 1,11,-1
 448 384 l 1,12,-1
 320 512 l 1,13,-1
 192 512 l 1,14,-1
 64 384 l 1,15,-1
 64 192 l 1,16,-1
 192 64 l 1,17,-1
 320 64 l 1,10,-1
192 0 m 1,18,-1
 128 32 l 1,19,-1
 32 128 l 1,20,-1
 0 192 l 1,21,-1
 0 384 l 1,22,-1
 32 448 l 1,23,-1
 128 544 l 1,24,-1
 192 576 l 1,25,-1
 320 576 l 1,26,-1
 384 544 l 1,27,-1
 480 448 l 1,28,-1
 512 384 l 1,29,-1
 512 192 l 1,30,-1
 480 128 l 1,31,-1
 384 32 l 1,32,-1
 320 0 l 1,33,-1
 192 0 l 1,18,-1
EndSplineSet
Validated: 1
EndChar

StartChar: ordfeminine
Encoding: 170 170 107
Width: 320
Flags: W
LayerCount: 2
Back
Fore
SplineSet
128 320 m 1,0,-1
 128 384 l 1,1,-1
 64 384 l 1,2,-1
 64 320 l 1,3,-1
 128 320 l 1,0,-1
64 256 m 1,4,-1
 0 320 l 1,5,-1
 0 384 l 1,6,-1
 64 448 l 1,7,-1
 128 448 l 1,8,-1
 128 512 l 1,9,-1
 0 512 l 1,10,-1
 0 576 l 1,11,-1
 128 576 l 1,12,-1
 192 512 l 1,13,-1
 192 256 l 1,14,-1
 64 256 l 1,4,-1
EndSplineSet
Validated: 1
EndChar

StartChar: guillemotleft
Encoding: 171 171 108
Width: 512
Flags: W
LayerCount: 2
Back
Fore
SplineSet
96 128 m 1,0,-1
 0 320 l 1,1,-1
 96 512 l 1,2,-1
 192 512 l 1,3,-1
 96 320 l 1,4,-1
 192 128 l 1,5,-1
 96 128 l 1,0,-1
288 128 m 1,6,-1
 192 320 l 1,7,-1
 288 512 l 1,8,-1
 384 512 l 1,9,-1
 288 320 l 1,10,-1
 384 128 l 1,11,-1
 288 128 l 1,6,-1
EndSplineSet
Validated: 1
EndChar

StartChar: logicalnot
Encoding: 172 172 109
Width: 576
Flags: W
LayerCount: 2
Back
Fore
SplineSet
320 192 m 1,0,-1
 320 320 l 1,1,-1
 0 320 l 1,2,-1
 0 384 l 1,3,-1
 448 384 l 1,4,-1
 448 192 l 1,5,-1
 320 192 l 1,0,-1
EndSplineSet
Validated: 1
EndChar

StartChar: registered
Encoding: 174 174 110
Width: 640
Flags: W
LayerCount: 2
Back
Fore
SplineSet
320 128 m 1,0,-1
 320 256 l 1,1,-1
 384 256 l 1,2,-1
 384 128 l 1,3,-1
 320 128 l 1,0,-1
128 128 m 1,4,-1
 128 448 l 1,5,-1
 320 448 l 1,6,-1
 384 384 l 1,7,-1
 384 320 l 1,8,-1
 320 320 l 1,9,-1
 320 384 l 1,10,-1
 192 384 l 1,11,-1
 192 320 l 1,12,-1
 320 320 l 1,13,-1
 320 256 l 1,14,-1
 192 256 l 1,15,-1
 192 128 l 1,16,-1
 128 128 l 1,4,-1
320 64 m 1,17,-1
 448 192 l 1,18,-1
 448 384 l 1,19,-1
 320 512 l 1,20,-1
 192 512 l 1,21,-1
 64 384 l 1,22,-1
 64 192 l 1,23,-1
 192 64 l 1,24,-1
 320 64 l 1,17,-1
192 0 m 1,25,-1
 128 32 l 1,26,-1
 32 128 l 1,27,-1
 0 192 l 1,28,-1
 0 384 l 1,29,-1
 32 448 l 1,30,-1
 128 544 l 1,31,-1
 192 576 l 1,32,-1
 320 576 l 1,33,-1
 384 544 l 1,34,-1
 480 448 l 1,35,-1
 512 384 l 1,36,-1
 512 192 l 1,37,-1
 480 128 l 1,38,-1
 384 32 l 1,39,-1
 320 0 l 1,40,-1
 192 0 l 1,25,-1
EndSplineSet
Validated: 5
EndChar

StartChar: macron
Encoding: 175 175 111
Width: 512
Flags: W
LayerCount: 2
Back
Fore
SplineSet
64 640 m 1,0,-1
 64 704 l 1,1,-1
 384 704 l 1,2,-1
 384 640 l 1,3,-1
 64 640 l 1,0,-1
EndSplineSet
Validated: 1
EndChar

StartChar: degree
Encoding: 176 176 112
Width: 384
Flags: W
LayerCount: 2
Back
Fore
SplineSet
128 384 m 1,0,-1
 170 405 l 1,1,-1
 192 448 l 1,2,-1
 170 490 l 1,3,-1
 128 512 l 1,4,-1
 85 490 l 1,5,-1
 64 448 l 1,6,-1
 85 405 l 1,7,-1
 128 384 l 1,8,-1
 128 384 l 1,0,-1
128 320 m 1,9,-1
 64 352 l 1,10,-1
 32 384 l 1,11,-1
 0 448 l 1,12,-1
 32 512 l 1,13,-1
 64 544 l 1,14,-1
 128 576 l 1,15,-1
 192 544 l 1,16,-1
 224 512 l 1,17,-1
 256 448 l 1,18,-1
 224 384 l 1,19,-1
 192 352 l 1,20,-1
 128 320 l 1,21,-1
 128 320 l 1,9,-1
EndSplineSet
Validated: 5
EndChar

StartChar: plusminus
Encoding: 177 177 113
Width: 640
Flags: W
LayerCount: 2
Back
Fore
SplineSet
0 0 m 1,0,-1
 0 64 l 1,1,-1
 512 64 l 1,2,-1
 512 0 l 1,3,-1
 0 0 l 1,0,-1
192 128 m 1,4,-1
 192 320 l 1,5,-1
 0 320 l 1,6,-1
 0 384 l 1,7,-1
 192 384 l 1,8,-1
 192 576 l 1,9,-1
 320 576 l 1,10,-1
 320 384 l 1,11,-1
 512 384 l 1,12,-1
 512 320 l 1,13,-1
 320 320 l 1,14,-1
 320 128 l 1,15,-1
 192 128 l 1,4,-1
EndSplineSet
Validated: 1
EndChar

StartChar: uni00B2
Encoding: 178 178 114
Width: 320
Flags: W
LayerCount: 2
Back
Fore
SplineSet
0 256 m 1,0,-1
 0 352 l 1,1,-1
 128 480 l 1,2,-1
 128 512 l 1,3,-1
 0 512 l 1,4,-1
 0 576 l 1,5,-1
 128 576 l 1,6,-1
 192 512 l 1,7,-1
 192 448 l 1,8,-1
 64 320 l 1,9,-1
 192 320 l 1,10,-1
 192 256 l 1,11,-1
 0 256 l 1,0,-1
EndSplineSet
Validated: 1
EndChar

StartChar: uni00B3
Encoding: 179 179 115
Width: 320
Flags: W
LayerCount: 2
Back
Fore
SplineSet
0 256 m 1,0,-1
 0 320 l 1,1,-1
 128 320 l 1,2,-1
 128 384 l 1,3,-1
 0 384 l 1,4,-1
 0 448 l 1,5,-1
 128 448 l 1,6,-1
 128 512 l 1,7,-1
 0 512 l 1,8,-1
 0 576 l 1,9,-1
 128 576 l 1,10,-1
 192 512 l 1,11,-1
 192 448 l 1,12,-1
 128 416 l 1,13,-1
 192 384 l 1,14,-1
 192 320 l 1,15,-1
 128 256 l 1,16,-1
 0 256 l 1,0,-1
EndSplineSet
Validated: 1
EndChar

StartChar: acute
Encoding: 180 180 116
Width: 448
Flags: W
LayerCount: 2
Back
Fore
SplineSet
0 512 m 1,0,-1
 0 544 l 1,1,-1
 320 704 l 1,2,-1
 320 640 l 1,3,-1
 64 512 l 1,4,-1
 0 512 l 1,0,-1
EndSplineSet
Validated: 1
EndChar

StartChar: mu
Encoding: 181 181 117
Width: 640
Flags: W
LayerCount: 2
Back
Fore
SplineSet
0 -192 m 1,0,-1
 0 448 l 1,1,-1
 192 448 l 1,2,-1
 192 128 l 1,3,-1
 256 96 l 1,4,-1
 320 128 l 1,5,-1
 320 448 l 1,6,-1
 512 448 l 1,7,-1
 512 0 l 1,8,-1
 320 0 l 1,9,-1
 320 64 l 1,10,-1
 192 0 l 1,11,-1
 192 -192 l 1,12,-1
 0 -192 l 1,0,-1
EndSplineSet
Validated: 1
EndChar

StartChar: paragraph
Encoding: 182 182 118
Width: 640
Flags: W
LayerCount: 2
Back
Fore
SplineSet
320 0 m 1,0,-1
 320 192 l 1,1,-1
 192 192 l 1,2,-1
 64 256 l 1,3,-1
 0 384 l 1,4,-1
 64 512 l 1,5,-1
 192 576 l 1,6,-1
 512 576 l 1,7,-1
 512 0 l 1,8,-1
 448 0 l 1,9,-1
 448 512 l 1,10,-1
 384 512 l 1,11,-1
 384 0 l 1,12,-1
 320 0 l 1,0,-1
EndSplineSet
Validated: 1
EndChar

StartChar: periodcentered
Encoding: 183 183 119
Width: 384
Flags: W
LayerCount: 2
Back
Fore
SplineSet
128 320 m 1,0,-1
 128 448 l 1,1,-1
 256 448 l 1,2,-1
 256 320 l 1,3,-1
 128 320 l 1,0,-1
EndSplineSet
Validated: 1
EndChar

StartChar: cedilla
Encoding: 184 184 120
Width: 320
Flags: W
LayerCount: 2
Back
Fore
SplineSet
0 -192 m 1,0,-1
 0 -160 l 1,1,-1
 64 -128 l 1,2,-1
 64 -96 l 1,3,-1
 0 -64 l 1,4,-1
 0 0 l 1,5,-1
 192 -96 l 1,6,-1
 192 -128 l 1,7,-1
 64 -192 l 1,8,-1
 0 -192 l 1,0,-1
EndSplineSet
Validated: 1
EndChar

StartChar: uni00B9
Encoding: 185 185 121
Width: 256
Flags: W
LayerCount: 2
Back
Fore
SplineSet
64 256 m 1,0,-1
 64 512 l 1,1,-1
 0 512 l 1,2,-1
 0 576 l 1,3,-1
 128 576 l 1,4,-1
 128 256 l 1,5,-1
 64 256 l 1,0,-1
EndSplineSet
Validated: 1
EndChar

StartChar: ordmasculine
Encoding: 186 186 122
Width: 320
Flags: W
LayerCount: 2
Back
Fore
SplineSet
128 320 m 1,0,-1
 128 512 l 1,1,-1
 64 512 l 1,2,-1
 64 320 l 1,3,-1
 128 320 l 1,0,-1
64 256 m 1,4,-1
 0 320 l 1,5,-1
 0 512 l 1,6,-1
 64 576 l 1,7,-1
 128 576 l 1,8,-1
 192 512 l 1,9,-1
 192 320 l 1,10,-1
 128 256 l 1,11,-1
 64 256 l 1,4,-1
EndSplineSet
Validated: 1
EndChar

StartChar: guillemotright
Encoding: 187 187 123
Width: 512
Flags: W
LayerCount: 2
Back
Fore
SplineSet
0 128 m 1,0,-1
 96 320 l 1,1,-1
 0 512 l 1,2,-1
 96 512 l 1,3,-1
 192 320 l 1,4,-1
 96 128 l 1,5,-1
 0 128 l 1,0,-1
192 128 m 1,6,-1
 288 320 l 1,7,-1
 192 512 l 1,8,-1
 288 512 l 1,9,-1
 384 320 l 1,10,-1
 288 128 l 1,11,-1
 192 128 l 1,6,-1
EndSplineSet
Validated: 1
EndChar

StartChar: onequarter
Encoding: 188 188 124
Width: 704
Flags: W
LayerCount: 2
Back
Fore
SplineSet
512 0 m 1,0,-1
 512 128 l 1,1,-1
 384 128 l 1,2,-1
 384 320 l 1,3,-1
 448 320 l 1,4,-1
 448 192 l 1,5,-1
 512 192 l 1,6,-1
 512 320 l 1,7,-1
 576 320 l 1,8,-1
 576 0 l 1,9,-1
 512 0 l 1,0,-1
64 256 m 1,10,-1
 64 512 l 1,11,-1
 0 512 l 1,12,-1
 0 576 l 1,13,-1
 128 576 l 1,14,-1
 128 256 l 1,15,-1
 64 256 l 1,10,-1
64 0 m 1,16,-1
 352 576 l 1,17,-1
 448 576 l 1,18,-1
 448 512 l 1,19,-1
 192 0 l 1,20,-1
 64 0 l 1,16,-1
EndSplineSet
Validated: 1
EndChar

StartChar: onehalf
Encoding: 189 189 125
Width: 704
Flags: W
LayerCount: 2
Back
Fore
SplineSet
384 0 m 1,0,-1
 384 96 l 1,1,-1
 512 224 l 1,2,-1
 512 256 l 1,3,-1
 384 256 l 1,4,-1
 384 320 l 1,5,-1
 512 320 l 1,6,-1
 576 256 l 1,7,-1
 576 192 l 1,8,-1
 448 64 l 1,9,-1
 576 64 l 1,10,-1
 576 0 l 1,11,-1
 384 0 l 1,0,-1
64 256 m 1,12,-1
 64 512 l 1,13,-1
 0 512 l 1,14,-1
 0 576 l 1,15,-1
 128 576 l 1,16,-1
 128 256 l 1,17,-1
 64 256 l 1,12,-1
64 0 m 1,18,-1
 352 576 l 1,19,-1
 448 576 l 1,20,-1
 448 512 l 1,21,-1
 192 0 l 1,22,-1
 64 0 l 1,18,-1
EndSplineSet
Validated: 1
EndChar

StartChar: threequarters
Encoding: 190 190 126
Width: 704
Flags: W
LayerCount: 2
Back
Fore
SplineSet
512 0 m 1,0,-1
 512 128 l 1,1,-1
 384 128 l 1,2,-1
 384 320 l 1,3,-1
 448 320 l 1,4,-1
 448 192 l 1,5,-1
 512 192 l 1,6,-1
 512 320 l 1,7,-1
 576 320 l 1,8,-1
 576 0 l 1,9,-1
 512 0 l 1,0,-1
0 256 m 1,10,-1
 0 320 l 1,11,-1
 128 320 l 1,12,-1
 128 384 l 1,13,-1
 0 384 l 1,14,-1
 0 448 l 1,15,-1
 128 448 l 1,16,-1
 128 512 l 1,17,-1
 0 512 l 1,18,-1
 0 576 l 1,19,-1
 128 576 l 1,20,-1
 192 512 l 1,21,-1
 192 448 l 1,22,-1
 128 416 l 1,23,-1
 192 384 l 1,24,-1
 192 320 l 1,25,-1
 128 256 l 1,26,-1
 0 256 l 1,10,-1
64 0 m 1,27,-1
 352 576 l 1,28,-1
 448 576 l 1,29,-1
 448 512 l 1,30,-1
 192 0 l 1,31,-1
 64 0 l 1,27,-1
EndSplineSet
Validated: 1
EndChar

StartChar: questiondown
Encoding: 191 191 127
Width: 576
Flags: W
LayerCount: 2
Back
Fore
SplineSet
128 0 m 1,0,-1
 64 32 l 1,1,-1
 32 64 l 1,2,-1
 0 128 l 1,3,-1
 0 192 l 1,4,-1
 32 256 l 1,5,-1
 64 288 l 1,6,-1
 128 320 l 1,7,-1
 192 320 l 1,8,-1
 192 384 l 1,9,-1
 320 384 l 1,10,-1
 320 320 l 1,11,-1
 256 256 l 1,12,-1
 192 256 l 1,13,-1
 149 234 l 1,14,-1
 128 192 l 1,15,-1
 128 160 l 1,16,-1
 192 96 l 1,17,-1
 256 64 l 1,18,-1
 320 64 l 1,19,-1
 362 85 l 1,20,-1
 384 128 l 1,21,-1
 448 128 l 1,22,-1
 448 64 l 1,23,-1
 384 0 l 1,24,-1
 128 0 l 1,0,-1
192 448 m 1,25,-1
 192 576 l 1,26,-1
 320 576 l 1,27,-1
 320 448 l 1,28,-1
 192 448 l 1,25,-1
EndSplineSet
Validated: 1
EndChar

StartChar: Agrave
Encoding: 192 192 128
Width: 768
Flags: W
LayerCount: 2
Back
Fore
SplineSet
384 192 m 1,0,-1
 288 384 l 1,1,-1
 192 192 l 1,2,-1
 384 192 l 1,0,-1
0 0 m 1,3,-1
 0 64 l 1,4,-1
 256 576 l 1,5,-1
 352 576 l 1,6,-1
 608 64 l 1,7,-1
 608 0 l 1,8,-1
 480 0 l 1,9,-1
 416 128 l 1,10,-1
 160 128 l 1,11,-1
 96 0 l 1,12,-1
 0 0 l 1,3,-1
384 640 m 1,13,-1
 128 768 l 1,14,-1
 128 832 l 1,15,-1
 448 672 l 1,16,-1
 448 640 l 1,17,-1
 384 640 l 1,13,-1
EndSplineSet
Validated: 1
EndChar

StartChar: Aacute
Encoding: 193 193 129
Width: 768
Flags: W
LayerCount: 2
Back
Fore
SplineSet
384 192 m 1,0,-1
 288 384 l 1,1,-1
 192 192 l 1,2,-1
 384 192 l 1,0,-1
0 0 m 1,3,-1
 0 64 l 1,4,-1
 256 576 l 1,5,-1
 352 576 l 1,6,-1
 608 64 l 1,7,-1
 608 0 l 1,8,-1
 480 0 l 1,9,-1
 416 128 l 1,10,-1
 160 128 l 1,11,-1
 96 0 l 1,12,-1
 0 0 l 1,3,-1
128 640 m 1,13,-1
 128 672 l 1,14,-1
 448 832 l 1,15,-1
 448 768 l 1,16,-1
 192 640 l 1,17,-1
 128 640 l 1,13,-1
EndSplineSet
Validated: 1
EndChar

StartChar: Acircumflex
Encoding: 194 194 130
Width: 768
Flags: W
LayerCount: 2
Back
Fore
SplineSet
384 192 m 1,0,-1
 288 384 l 1,1,-1
 192 192 l 1,2,-1
 384 192 l 1,0,-1
0 0 m 1,3,-1
 0 64 l 1,4,-1
 256 576 l 1,5,-1
 352 576 l 1,6,-1
 608 64 l 1,7,-1
 608 0 l 1,8,-1
 480 0 l 1,9,-1
 416 128 l 1,10,-1
 160 128 l 1,11,-1
 96 0 l 1,12,-1
 0 0 l 1,3,-1
128 576 m 1,13,-1
 128 608 l 1,14,-1
 288 768 l 1,15,-1
 352 768 l 1,16,-1
 512 608 l 1,17,-1
 512 576 l 1,18,-1
 448 576 l 1,19,-1
 320 704 l 1,20,-1
 192 576 l 1,21,-1
 128 576 l 1,13,-1
EndSplineSet
Validated: 1
EndChar

StartChar: Atilde
Encoding: 195 195 131
Width: 768
Flags: W
LayerCount: 2
Back
Fore
SplineSet
384 192 m 1,0,-1
 288 384 l 1,1,-1
 192 192 l 1,2,-1
 384 192 l 1,0,-1
0 0 m 1,3,-1
 0 64 l 1,4,-1
 256 576 l 1,5,-1
 352 576 l 1,6,-1
 608 64 l 1,7,-1
 608 0 l 1,8,-1
 480 0 l 1,9,-1
 416 128 l 1,10,-1
 160 128 l 1,11,-1
 96 0 l 1,12,-1
 0 0 l 1,3,-1
128 640 m 1,13,-1
 128 672 l 1,14,-1
 192 736 l 1,15,-1
 256 768 l 1,16,-1
 384 704 l 1,17,-1
 448 768 l 1,18,-1
 512 768 l 1,19,-1
 512 736 l 1,20,-1
 448 672 l 1,21,-1
 384 640 l 1,22,-1
 256 704 l 1,23,-1
 192 640 l 1,24,-1
 128 640 l 1,13,-1
EndSplineSet
Validated: 1
EndChar

StartChar: Adieresis
Encoding: 196 196 132
Width: 768
Flags: W
LayerCount: 2
Back
Fore
SplineSet
384 192 m 1,0,-1
 288 384 l 1,1,-1
 192 192 l 1,2,-1
 384 192 l 1,0,-1
0 0 m 1,3,-1
 0 64 l 1,4,-1
 256 576 l 1,5,-1
 352 576 l 1,6,-1
 608 64 l 1,7,-1
 608 0 l 1,8,-1
 480 0 l 1,9,-1
 416 128 l 1,10,-1
 160 128 l 1,11,-1
 96 0 l 1,12,-1
 0 0 l 1,3,-1
128 640 m 1,13,-1
 128 768 l 1,14,-1
 256 768 l 1,15,-1
 256 640 l 1,16,-1
 128 640 l 1,13,-1
320 640 m 1,17,-1
 320 768 l 1,18,-1
 448 768 l 1,19,-1
 448 640 l 1,20,-1
 320 640 l 1,17,-1
EndSplineSet
Validated: 1
EndChar

StartChar: Aring
Encoding: 197 197 133
Width: 768
Flags: W
LayerCount: 2
Back
Fore
SplineSet
384 192 m 1,0,-1
 288 384 l 1,1,-1
 192 192 l 1,2,-1
 384 192 l 1,0,-1
368 640 m 1,3,-1
 368 704 l 1,4,-1
 240 704 l 1,5,-1
 240 640 l 1,6,-1
 368 640 l 1,3,-1
0 0 m 1,7,-1
 0 64 l 1,8,-1
 256 576 l 1,9,-1
 240 576 l 1,10,-1
 176 640 l 1,11,-1
 176 704 l 1,12,-1
 240 768 l 1,13,-1
 368 768 l 1,14,-1
 432 704 l 1,15,-1
 432 640 l 1,16,-1
 368 576 l 1,17,-1
 352 576 l 1,18,-1
 608 64 l 1,19,-1
 608 0 l 1,20,-1
 480 0 l 1,21,-1
 416 128 l 1,22,-1
 160 128 l 1,23,-1
 96 0 l 1,24,-1
 0 0 l 1,7,-1
EndSplineSet
Validated: 1
EndChar

StartChar: AE
Encoding: 198 198 134
Width: 768
Flags: W
LayerCount: 2
Back
Fore
SplineSet
256 192 m 1,0,-1
 256 320 l 1,1,-1
 192 192 l 1,2,-1
 256 192 l 1,0,-1
0 0 m 1,3,-1
 0 64 l 1,4,-1
 256 576 l 1,5,-1
 640 576 l 1,6,-1
 640 512 l 1,7,-1
 384 512 l 1,8,-1
 384 320 l 1,9,-1
 576 320 l 1,10,-1
 576 256 l 1,11,-1
 384 256 l 1,12,-1
 384 64 l 1,13,-1
 640 64 l 1,14,-1
 640 0 l 1,15,-1
 256 0 l 1,16,-1
 256 128 l 1,17,-1
 160 128 l 1,18,-1
 96 0 l 1,19,-1
 0 0 l 1,3,-1
EndSplineSet
Validated: 1
EndChar

StartChar: Ccedilla
Encoding: 199 199 135
Width: 640
Flags: W
LayerCount: 2
Back
Fore
SplineSet
256 -192 m 1,0,-1
 256 -160 l 1,1,-1
 320 -128 l 1,2,-1
 320 -96 l 1,3,-1
 256 -64 l 1,4,-1
 256 0 l 1,5,-1
 448 -96 l 1,6,-1
 448 -128 l 1,7,-1
 320 -192 l 1,8,-1
 256 -192 l 1,0,-1
256 0 m 1,9,-1
 128 64 l 1,10,-1
 64 128 l 1,11,-1
 0 256 l 1,12,-1
 0 320 l 1,13,-1
 64 448 l 1,14,-1
 128 512 l 1,15,-1
 256 576 l 1,16,-1
 512 576 l 1,17,-1
 512 512 l 1,18,-1
 320 512 l 1,19,-1
 256 480 l 1,20,-1
 224 448 l 1,21,-1
 192 384 l 1,22,-1
 192 192 l 1,23,-1
 224 128 l 1,24,-1
 256 96 l 1,25,-1
 320 64 l 1,26,-1
 512 64 l 1,27,-1
 512 0 l 1,28,-1
 256 0 l 1,9,-1
EndSplineSet
Validated: 5
EndChar

StartChar: Egrave
Encoding: 200 200 136
Width: 576
Flags: W
LayerCount: 2
Back
Fore
SplineSet
0 0 m 1,0,-1
 0 576 l 1,1,-1
 448 576 l 1,2,-1
 448 512 l 1,3,-1
 192 512 l 1,4,-1
 192 320 l 1,5,-1
 384 320 l 1,6,-1
 384 256 l 1,7,-1
 192 256 l 1,8,-1
 192 64 l 1,9,-1
 448 64 l 1,10,-1
 448 0 l 1,11,-1
 0 0 l 1,0,-1
320 640 m 1,12,-1
 64 768 l 1,13,-1
 64 832 l 1,14,-1
 384 672 l 1,15,-1
 384 640 l 1,16,-1
 320 640 l 1,12,-1
EndSplineSet
Validated: 1
EndChar

StartChar: Eacute
Encoding: 201 201 137
Width: 576
Flags: W
LayerCount: 2
Back
Fore
SplineSet
0 0 m 1,0,-1
 0 576 l 1,1,-1
 448 576 l 1,2,-1
 448 512 l 1,3,-1
 192 512 l 1,4,-1
 192 320 l 1,5,-1
 384 320 l 1,6,-1
 384 256 l 1,7,-1
 192 256 l 1,8,-1
 192 64 l 1,9,-1
 448 64 l 1,10,-1
 448 0 l 1,11,-1
 0 0 l 1,0,-1
64 640 m 1,12,-1
 64 672 l 1,13,-1
 384 832 l 1,14,-1
 384 768 l 1,15,-1
 128 640 l 1,16,-1
 64 640 l 1,12,-1
EndSplineSet
Validated: 1
EndChar

StartChar: Ecircumflex
Encoding: 202 202 138
Width: 576
Flags: W
LayerCount: 2
Back
Fore
SplineSet
0 0 m 1,0,-1
 0 576 l 1,1,-1
 448 576 l 1,2,-1
 448 512 l 1,3,-1
 192 512 l 1,4,-1
 192 320 l 1,5,-1
 384 320 l 1,6,-1
 384 256 l 1,7,-1
 192 256 l 1,8,-1
 192 64 l 1,9,-1
 448 64 l 1,10,-1
 448 0 l 1,11,-1
 0 0 l 1,0,-1
0 640 m 1,12,-1
 0 672 l 1,13,-1
 160 832 l 1,14,-1
 224 832 l 1,15,-1
 384 672 l 1,16,-1
 384 640 l 1,17,-1
 320 640 l 1,18,-1
 192 768 l 1,19,-1
 64 640 l 1,20,-1
 0 640 l 1,12,-1
EndSplineSet
Validated: 1
EndChar

StartChar: Edieresis
Encoding: 203 203 139
Width: 576
Flags: W
LayerCount: 2
Back
Fore
SplineSet
0 0 m 1,0,-1
 0 576 l 1,1,-1
 448 576 l 1,2,-1
 448 512 l 1,3,-1
 192 512 l 1,4,-1
 192 320 l 1,5,-1
 384 320 l 1,6,-1
 384 256 l 1,7,-1
 192 256 l 1,8,-1
 192 64 l 1,9,-1
 448 64 l 1,10,-1
 448 0 l 1,11,-1
 0 0 l 1,0,-1
64 640 m 1,12,-1
 64 768 l 1,13,-1
 192 768 l 1,14,-1
 192 640 l 1,15,-1
 64 640 l 1,12,-1
256 640 m 1,16,-1
 256 768 l 1,17,-1
 384 768 l 1,18,-1
 384 640 l 1,19,-1
 256 640 l 1,16,-1
EndSplineSet
Validated: 1
EndChar

StartChar: Igrave
Encoding: 204 204 140
Width: 448
Flags: W
LayerCount: 2
Back
Fore
SplineSet
64 0 m 1,0,-1
 64 576 l 1,1,-1
 256 576 l 1,2,-1
 256 0 l 1,3,-1
 64 0 l 1,0,-1
256 640 m 1,4,-1
 0 768 l 1,5,-1
 0 832 l 1,6,-1
 320 672 l 1,7,-1
 320 640 l 1,8,-1
 256 640 l 1,4,-1
EndSplineSet
Validated: 1
EndChar

StartChar: Iacute
Encoding: 205 205 141
Width: 448
Flags: W
LayerCount: 2
Back
Fore
SplineSet
64 0 m 1,0,-1
 64 576 l 1,1,-1
 256 576 l 1,2,-1
 256 0 l 1,3,-1
 64 0 l 1,0,-1
0 640 m 1,4,-1
 0 672 l 1,5,-1
 320 832 l 1,6,-1
 320 768 l 1,7,-1
 64 640 l 1,8,-1
 0 640 l 1,4,-1
EndSplineSet
Validated: 1
EndChar

StartChar: Icircumflex
Encoding: 206 206 142
Width: 512
Flags: W
LayerCount: 2
Back
Fore
SplineSet
96 0 m 1,0,-1
 96 576 l 1,1,-1
 288 576 l 1,2,-1
 288 0 l 1,3,-1
 96 0 l 1,0,-1
0 640 m 1,4,-1
 0 672 l 1,5,-1
 160 832 l 1,6,-1
 224 832 l 1,7,-1
 384 672 l 1,8,-1
 384 640 l 1,9,-1
 320 640 l 1,10,-1
 192 768 l 1,11,-1
 64 640 l 1,12,-1
 0 640 l 1,4,-1
EndSplineSet
Validated: 1
EndChar

StartChar: Idieresis
Encoding: 207 207 143
Width: 448
Flags: W
LayerCount: 2
Back
Fore
SplineSet
64 0 m 1,0,-1
 64 576 l 1,1,-1
 256 576 l 1,2,-1
 256 0 l 1,3,-1
 64 0 l 1,0,-1
0 640 m 1,4,-1
 0 768 l 1,5,-1
 128 768 l 1,6,-1
 128 640 l 1,7,-1
 0 640 l 1,4,-1
192 640 m 1,8,-1
 192 768 l 1,9,-1
 320 768 l 1,10,-1
 320 640 l 1,11,-1
 192 640 l 1,8,-1
EndSplineSet
Validated: 1
EndChar

StartChar: Eth
Encoding: 208 208 144
Width: 768
Flags: W
LayerCount: 2
Back
Fore
SplineSet
320 64 m 1,0,-1
 384 96 l 1,1,-1
 416 128 l 1,2,-1
 448 192 l 1,3,-1
 448 384 l 1,4,-1
 416 448 l 1,5,-1
 384 480 l 1,6,-1
 320 512 l 1,7,-1
 256 512 l 1,8,-1
 256 320 l 1,9,-1
 384 320 l 1,10,-1
 384 256 l 1,11,-1
 256 256 l 1,12,-1
 256 64 l 1,13,-1
 320 64 l 1,0,-1
64 0 m 1,14,-1
 64 256 l 1,15,-1
 0 256 l 1,16,-1
 0 320 l 1,17,-1
 64 320 l 1,18,-1
 64 576 l 1,19,-1
 384 576 l 1,20,-1
 512 512 l 1,21,-1
 576 448 l 1,22,-1
 640 320 l 1,23,-1
 640 256 l 1,24,-1
 576 128 l 1,25,-1
 512 64 l 1,26,-1
 384 0 l 1,27,-1
 64 0 l 1,14,-1
EndSplineSet
Validated: 1
EndChar

StartChar: Ntilde
Encoding: 209 209 145
Width: 640
Flags: W
LayerCount: 2
Back
Fore
SplineSet
0 0 m 1,0,-1
 0 576 l 1,1,-1
 96 576 l 1,2,-1
 448 224 l 1,3,-1
 448 576 l 1,4,-1
 512 576 l 1,5,-1
 512 0 l 1,6,-1
 416 0 l 1,7,-1
 64 352 l 1,8,-1
 64 0 l 1,9,-1
 0 0 l 1,0,-1
64 640 m 1,10,-1
 64 672 l 1,11,-1
 128 736 l 1,12,-1
 192 768 l 1,13,-1
 320 704 l 1,14,-1
 384 768 l 1,15,-1
 448 768 l 1,16,-1
 448 736 l 1,17,-1
 384 672 l 1,18,-1
 320 640 l 1,19,-1
 192 704 l 1,20,-1
 128 640 l 1,21,-1
 64 640 l 1,10,-1
EndSplineSet
Validated: 1
EndChar

StartChar: Ograve
Encoding: 210 210 146
Width: 768
Flags: W
LayerCount: 2
Back
Fore
SplineSet
320 64 m 1,0,-1
 384 96 l 1,1,-1
 416 128 l 1,2,-1
 448 192 l 1,3,-1
 448 384 l 1,4,-1
 416 448 l 1,5,-1
 384 480 l 1,6,-1
 320 512 l 1,7,-1
 256 480 l 1,8,-1
 224 448 l 1,9,-1
 192 384 l 1,10,-1
 192 192 l 1,11,-1
 224 128 l 1,12,-1
 256 96 l 1,13,-1
 320 64 l 1,14,-1
 320 64 l 1,0,-1
256 0 m 1,15,-1
 128 64 l 1,16,-1
 64 128 l 1,17,-1
 0 256 l 1,18,-1
 0 320 l 1,19,-1
 64 448 l 1,20,-1
 128 512 l 1,21,-1
 256 576 l 1,22,-1
 384 576 l 1,23,-1
 512 512 l 1,24,-1
 576 448 l 1,25,-1
 640 320 l 1,26,-1
 640 256 l 1,27,-1
 576 128 l 1,28,-1
 512 64 l 1,29,-1
 384 0 l 1,30,-1
 256 0 l 1,15,-1
384 640 m 1,31,-1
 128 768 l 1,32,-1
 128 832 l 1,33,-1
 448 672 l 1,34,-1
 448 640 l 1,35,-1
 384 640 l 1,31,-1
EndSplineSet
Validated: 5
EndChar

StartChar: Oacute
Encoding: 211 211 147
Width: 768
Flags: W
LayerCount: 2
Back
Fore
SplineSet
320 64 m 1,0,-1
 384 96 l 1,1,-1
 416 128 l 1,2,-1
 448 192 l 1,3,-1
 448 384 l 1,4,-1
 416 448 l 1,5,-1
 384 480 l 1,6,-1
 320 512 l 1,7,-1
 256 480 l 1,8,-1
 224 448 l 1,9,-1
 192 384 l 1,10,-1
 192 192 l 1,11,-1
 224 128 l 1,12,-1
 256 96 l 1,13,-1
 320 64 l 1,14,-1
 320 64 l 1,0,-1
256 0 m 1,15,-1
 128 64 l 1,16,-1
 64 128 l 1,17,-1
 0 256 l 1,18,-1
 0 320 l 1,19,-1
 64 448 l 1,20,-1
 128 512 l 1,21,-1
 256 576 l 1,22,-1
 384 576 l 1,23,-1
 512 512 l 1,24,-1
 576 448 l 1,25,-1
 640 320 l 1,26,-1
 640 256 l 1,27,-1
 576 128 l 1,28,-1
 512 64 l 1,29,-1
 384 0 l 1,30,-1
 256 0 l 1,15,-1
192 640 m 1,31,-1
 192 672 l 1,32,-1
 512 832 l 1,33,-1
 512 768 l 1,34,-1
 256 640 l 1,35,-1
 192 640 l 1,31,-1
EndSplineSet
Validated: 5
EndChar

StartChar: Ocircumflex
Encoding: 212 212 148
Width: 768
Flags: W
LayerCount: 2
Back
Fore
SplineSet
320 64 m 1,0,-1
 384 96 l 1,1,-1
 416 128 l 1,2,-1
 448 192 l 1,3,-1
 448 384 l 1,4,-1
 416 448 l 1,5,-1
 384 480 l 1,6,-1
 320 512 l 1,7,-1
 256 480 l 1,8,-1
 224 448 l 1,9,-1
 192 384 l 1,10,-1
 192 192 l 1,11,-1
 224 128 l 1,12,-1
 256 96 l 1,13,-1
 320 64 l 1,14,-1
 320 64 l 1,0,-1
256 0 m 1,15,-1
 128 64 l 1,16,-1
 64 128 l 1,17,-1
 0 256 l 1,18,-1
 0 320 l 1,19,-1
 64 448 l 1,20,-1
 128 512 l 1,21,-1
 256 576 l 1,22,-1
 384 576 l 1,23,-1
 512 512 l 1,24,-1
 576 448 l 1,25,-1
 640 320 l 1,26,-1
 640 256 l 1,27,-1
 576 128 l 1,28,-1
 512 64 l 1,29,-1
 384 0 l 1,30,-1
 256 0 l 1,15,-1
128 640 m 1,31,-1
 128 672 l 1,32,-1
 288 832 l 1,33,-1
 352 832 l 1,34,-1
 512 672 l 1,35,-1
 512 640 l 1,36,-1
 448 640 l 1,37,-1
 320 768 l 1,38,-1
 192 640 l 1,39,-1
 128 640 l 1,31,-1
EndSplineSet
Validated: 5
EndChar

StartChar: Otilde
Encoding: 213 213 149
Width: 768
Flags: W
LayerCount: 2
Back
Fore
SplineSet
320 64 m 1,0,-1
 384 96 l 1,1,-1
 416 128 l 1,2,-1
 448 192 l 1,3,-1
 448 384 l 1,4,-1
 416 448 l 1,5,-1
 384 480 l 1,6,-1
 320 512 l 1,7,-1
 256 480 l 1,8,-1
 224 448 l 1,9,-1
 192 384 l 1,10,-1
 192 192 l 1,11,-1
 224 128 l 1,12,-1
 256 96 l 1,13,-1
 320 64 l 1,14,-1
 320 64 l 1,0,-1
256 0 m 1,15,-1
 128 64 l 1,16,-1
 64 128 l 1,17,-1
 0 256 l 1,18,-1
 0 320 l 1,19,-1
 64 448 l 1,20,-1
 128 512 l 1,21,-1
 256 576 l 1,22,-1
 384 576 l 1,23,-1
 512 512 l 1,24,-1
 576 448 l 1,25,-1
 640 320 l 1,26,-1
 640 256 l 1,27,-1
 576 128 l 1,28,-1
 512 64 l 1,29,-1
 384 0 l 1,30,-1
 256 0 l 1,15,-1
128 640 m 1,31,-1
 128 672 l 1,32,-1
 192 736 l 1,33,-1
 256 768 l 1,34,-1
 384 704 l 1,35,-1
 448 768 l 1,36,-1
 512 768 l 1,37,-1
 512 736 l 1,38,-1
 448 672 l 1,39,-1
 384 640 l 1,40,-1
 256 704 l 1,41,-1
 192 640 l 1,42,-1
 128 640 l 1,31,-1
EndSplineSet
Validated: 5
EndChar

StartChar: Odieresis
Encoding: 214 214 150
Width: 768
Flags: W
LayerCount: 2
Back
Fore
SplineSet
320 64 m 1,0,-1
 384 96 l 1,1,-1
 416 128 l 1,2,-1
 448 192 l 1,3,-1
 448 384 l 1,4,-1
 416 448 l 1,5,-1
 384 480 l 1,6,-1
 320 512 l 1,7,-1
 256 480 l 1,8,-1
 224 448 l 1,9,-1
 192 384 l 1,10,-1
 192 192 l 1,11,-1
 224 128 l 1,12,-1
 256 96 l 1,13,-1
 320 64 l 1,14,-1
 320 64 l 1,0,-1
256 0 m 1,15,-1
 128 64 l 1,16,-1
 64 128 l 1,17,-1
 0 256 l 1,18,-1
 0 320 l 1,19,-1
 64 448 l 1,20,-1
 128 512 l 1,21,-1
 256 576 l 1,22,-1
 384 576 l 1,23,-1
 512 512 l 1,24,-1
 576 448 l 1,25,-1
 640 320 l 1,26,-1
 640 256 l 1,27,-1
 576 128 l 1,28,-1
 512 64 l 1,29,-1
 384 0 l 1,30,-1
 256 0 l 1,15,-1
128 640 m 1,31,-1
 128 768 l 1,32,-1
 256 768 l 1,33,-1
 256 640 l 1,34,-1
 128 640 l 1,31,-1
384 640 m 1,35,-1
 384 768 l 1,36,-1
 512 768 l 1,37,-1
 512 640 l 1,38,-1
 384 640 l 1,35,-1
EndSplineSet
Validated: 5
EndChar

StartChar: multiply
Encoding: 215 215 151
Width: 640
Flags: W
LayerCount: 2
Back
Fore
SplineSet
128 320 m 1,0,-1
 128 384 l 1,1,-1
 160 384 l 1,2,-1
 144 320 l 1,3,-1
 128 320 l 1,0,-1
0 128 m 1,4,-1
 0 160 l 1,5,-1
 160 320 l 1,6,-1
 192 320 l 1,7,-1
 192 384 l 1,8,-1
 160 384 l 1,9,-1
 0 544 l 1,10,-1
 0 576 l 1,11,-1
 96 576 l 1,12,-1
 256 416 l 1,13,-1
 416 576 l 1,14,-1
 512 576 l 1,15,-1
 512 544 l 1,16,-1
 320 352 l 1,17,-1
 512 160 l 1,18,-1
 512 128 l 1,19,-1
 416 128 l 1,20,-1
 256 288 l 1,21,-1
 96 128 l 1,22,-1
 0 128 l 1,4,-1
EndSplineSet
Validated: 5
EndChar

StartChar: Oslash
Encoding: 216 216 152
Width: 768
Flags: W
LayerCount: 2
Back
Fore
SplineSet
320 64 m 1,0,-1
 384 96 l 1,1,-1
 416 128 l 1,2,-1
 448 192 l 1,3,-1
 448 320 l 1,4,-1
 192 192 l 1,5,-1
 224 128 l 1,6,-1
 256 96 l 1,7,-1
 320 64 l 1,8,-1
 320 64 l 1,0,-1
192 256 m 1,9,-1
 448 384 l 1,10,-1
 416 448 l 1,11,-1
 384 480 l 1,12,-1
 320 512 l 1,13,-1
 256 480 l 1,14,-1
 224 448 l 1,15,-1
 192 384 l 1,16,-1
 192 256 l 1,17,-1
 192 256 l 1,9,-1
256 0 m 1,18,-1
 128 64 l 1,19,-1
 64 128 l 1,20,-1
 0 256 l 1,21,-1
 0 320 l 1,22,-1
 64 448 l 1,23,-1
 128 512 l 1,24,-1
 256 576 l 1,25,-1
 384 576 l 1,26,-1
 512 512 l 1,27,-1
 576 448 l 1,28,-1
 640 320 l 1,29,-1
 640 256 l 1,30,-1
 576 128 l 1,31,-1
 512 64 l 1,32,-1
 384 0 l 1,33,-1
 256 0 l 1,18,-1
EndSplineSet
Validated: 5
EndChar

StartChar: Ugrave
Encoding: 217 217 153
Width: 640
Flags: W
LayerCount: 2
Back
Fore
SplineSet
192 0 m 1,0,-1
 128 32 l 1,1,-1
 32 128 l 1,2,-1
 0 192 l 1,3,-1
 0 576 l 1,4,-1
 192 576 l 1,5,-1
 192 128 l 1,6,-1
 256 64 l 1,7,-1
 320 64 l 1,8,-1
 384 128 l 1,9,-1
 384 576 l 1,10,-1
 512 576 l 1,11,-1
 512 192 l 1,12,-1
 480 128 l 1,13,-1
 384 32 l 1,14,-1
 320 0 l 1,15,-1
 192 0 l 1,0,-1
384 640 m 1,16,-1
 128 768 l 1,17,-1
 128 832 l 1,18,-1
 448 672 l 1,19,-1
 448 640 l 1,20,-1
 384 640 l 1,16,-1
EndSplineSet
Validated: 1
EndChar

StartChar: Uacute
Encoding: 218 218 154
Width: 640
Flags: W
LayerCount: 2
Back
Fore
SplineSet
192 0 m 1,0,-1
 128 32 l 1,1,-1
 32 128 l 1,2,-1
 0 192 l 1,3,-1
 0 576 l 1,4,-1
 192 576 l 1,5,-1
 192 128 l 1,6,-1
 256 64 l 1,7,-1
 320 64 l 1,8,-1
 384 128 l 1,9,-1
 384 576 l 1,10,-1
 512 576 l 1,11,-1
 512 192 l 1,12,-1
 480 128 l 1,13,-1
 384 32 l 1,14,-1
 320 0 l 1,15,-1
 192 0 l 1,0,-1
128 640 m 1,16,-1
 128 672 l 1,17,-1
 448 832 l 1,18,-1
 448 768 l 1,19,-1
 192 640 l 1,20,-1
 128 640 l 1,16,-1
EndSplineSet
Validated: 1
EndChar

StartChar: Ucircumflex
Encoding: 219 219 155
Width: 640
Flags: W
LayerCount: 2
Back
Fore
SplineSet
192 0 m 1,0,-1
 128 32 l 1,1,-1
 32 128 l 1,2,-1
 0 192 l 1,3,-1
 0 576 l 1,4,-1
 192 576 l 1,5,-1
 192 128 l 1,6,-1
 256 64 l 1,7,-1
 320 64 l 1,8,-1
 384 128 l 1,9,-1
 384 576 l 1,10,-1
 512 576 l 1,11,-1
 512 192 l 1,12,-1
 480 128 l 1,13,-1
 384 32 l 1,14,-1
 320 0 l 1,15,-1
 192 0 l 1,0,-1
64 640 m 1,16,-1
 64 672 l 1,17,-1
 224 832 l 1,18,-1
 288 832 l 1,19,-1
 448 672 l 1,20,-1
 448 640 l 1,21,-1
 384 640 l 1,22,-1
 256 768 l 1,23,-1
 128 640 l 1,24,-1
 64 640 l 1,16,-1
EndSplineSet
Validated: 1
EndChar

StartChar: Udieresis
Encoding: 220 220 156
Width: 640
Flags: W
LayerCount: 2
Back
Fore
SplineSet
192 0 m 1,0,-1
 128 32 l 1,1,-1
 32 128 l 1,2,-1
 0 192 l 1,3,-1
 0 576 l 1,4,-1
 192 576 l 1,5,-1
 192 128 l 1,6,-1
 256 64 l 1,7,-1
 320 64 l 1,8,-1
 384 128 l 1,9,-1
 384 576 l 1,10,-1
 512 576 l 1,11,-1
 512 192 l 1,12,-1
 480 128 l 1,13,-1
 384 32 l 1,14,-1
 320 0 l 1,15,-1
 192 0 l 1,0,-1
128 640 m 1,16,-1
 128 768 l 1,17,-1
 256 768 l 1,18,-1
 256 640 l 1,19,-1
 128 640 l 1,16,-1
320 640 m 1,20,-1
 320 768 l 1,21,-1
 448 768 l 1,22,-1
 448 640 l 1,23,-1
 320 640 l 1,20,-1
EndSplineSet
Validated: 1
EndChar

StartChar: Yacute
Encoding: 221 221 157
Width: 704
Flags: W
LayerCount: 2
Back
Fore
SplineSet
192 0 m 1,0,-1
 192 192 l 1,1,-1
 0 576 l 1,2,-1
 160 576 l 1,3,-1
 320 256 l 1,4,-1
 480 576 l 1,5,-1
 576 576 l 1,6,-1
 384 192 l 1,7,-1
 384 0 l 1,8,-1
 192 0 l 1,0,-1
128 640 m 1,9,-1
 128 672 l 1,10,-1
 448 832 l 1,11,-1
 448 768 l 1,12,-1
 192 640 l 1,13,-1
 128 640 l 1,9,-1
EndSplineSet
Validated: 1
EndChar

StartChar: Thorn
Encoding: 222 222 158
Width: 640
Flags: W
LayerCount: 2
Back
Fore
SplineSet
256 192 m 1,0,-1
 320 224 l 1,1,-1
 352 256 l 1,2,-1
 384 320 l 1,3,-1
 352 384 l 1,4,-1
 320 416 l 1,5,-1
 256 448 l 1,6,-1
 192 448 l 1,7,-1
 192 192 l 1,8,-1
 256 192 l 1,0,-1
0 0 m 1,9,-1
 0 576 l 1,10,-1
 192 576 l 1,11,-1
 192 512 l 1,12,-1
 320 512 l 1,13,-1
 448 448 l 1,14,-1
 512 320 l 1,15,-1
 448 192 l 1,16,-1
 320 128 l 1,17,-1
 192 128 l 1,18,-1
 192 0 l 1,19,-1
 0 0 l 1,9,-1
EndSplineSet
Validated: 1
EndChar

StartChar: germandbls
Encoding: 223 223 159
Width: 640
Flags: W
LayerCount: 2
Back
Fore
SplineSet
0 0 m 1,0,-1
 0 448 l 1,1,-1
 32 512 l 1,2,-1
 64 544 l 1,3,-1
 128 576 l 1,4,-1
 320 576 l 1,5,-1
 384 544 l 1,6,-1
 416 512 l 1,7,-1
 448 448 l 1,8,-1
 448 384 l 1,9,-1
 416 320 l 1,10,-1
 405 309 l 1,11,-1
 448 288 l 1,12,-1
 480 256 l 1,13,-1
 512 192 l 1,14,-1
 512 128 l 1,15,-1
 480 64 l 1,16,-1
 448 32 l 1,17,-1
 384 0 l 1,18,-1
 256 0 l 1,19,-1
 256 64 l 1,20,-1
 320 64 l 1,21,-1
 362 85 l 1,22,-1
 384 128 l 1,23,-1
 384 192 l 1,24,-1
 362 234 l 1,25,-1
 256 288 l 1,26,-1
 256 320 l 1,27,-1
 298 341 l 1,28,-1
 320 384 l 1,29,-1
 320 448 l 1,30,-1
 298 490 l 1,31,-1
 256 512 l 1,32,-1
 213 490 l 1,33,-1
 192 448 l 1,34,-1
 192 0 l 1,35,-1
 0 0 l 1,0,-1
EndSplineSet
Validated: 1
EndChar

StartChar: agrave
Encoding: 224 224 160
Width: 640
Flags: W
LayerCount: 2
Back
Fore
SplineSet
288 64 m 1,0,-1
 320 96 l 1,1,-1
 320 192 l 1,2,-1
 224 192 l 1,3,-1
 192 160 l 1,4,-1
 192 96 l 1,5,-1
 224 64 l 1,6,-1
 288 64 l 1,0,-1
128 0 m 1,7,-1
 64 32 l 1,8,-1
 32 64 l 1,9,-1
 0 128 l 1,10,-1
 32 192 l 1,11,-1
 64 224 l 1,12,-1
 128 256 l 1,13,-1
 320 256 l 1,14,-1
 320 320 l 1,15,-1
 256 384 l 1,16,-1
 64 384 l 1,17,-1
 64 448 l 1,18,-1
 320 448 l 1,19,-1
 448 384 l 1,20,-1
 512 256 l 1,21,-1
 512 0 l 1,22,-1
 352 0 l 1,23,-1
 320 32 l 1,24,-1
 256 0 l 1,25,-1
 128 0 l 1,7,-1
320 512 m 1,26,-1
 64 640 l 1,27,-1
 64 704 l 1,28,-1
 384 544 l 1,29,-1
 384 512 l 1,30,-1
 320 512 l 1,26,-1
EndSplineSet
Validated: 1
EndChar

StartChar: aacute
Encoding: 225 225 161
Width: 640
Flags: W
LayerCount: 2
Back
Fore
SplineSet
288 64 m 1,0,-1
 320 96 l 1,1,-1
 320 192 l 1,2,-1
 224 192 l 1,3,-1
 192 160 l 1,4,-1
 192 96 l 1,5,-1
 224 64 l 1,6,-1
 288 64 l 1,0,-1
128 0 m 1,7,-1
 64 32 l 1,8,-1
 32 64 l 1,9,-1
 0 128 l 1,10,-1
 32 192 l 1,11,-1
 64 224 l 1,12,-1
 128 256 l 1,13,-1
 320 256 l 1,14,-1
 320 320 l 1,15,-1
 256 384 l 1,16,-1
 64 384 l 1,17,-1
 64 448 l 1,18,-1
 320 448 l 1,19,-1
 448 384 l 1,20,-1
 512 256 l 1,21,-1
 512 0 l 1,22,-1
 352 0 l 1,23,-1
 320 32 l 1,24,-1
 256 0 l 1,25,-1
 128 0 l 1,7,-1
128 512 m 1,26,-1
 128 544 l 1,27,-1
 448 704 l 1,28,-1
 448 640 l 1,29,-1
 192 512 l 1,30,-1
 128 512 l 1,26,-1
EndSplineSet
Validated: 1
EndChar

StartChar: acircumflex
Encoding: 226 226 162
Width: 640
Flags: W
LayerCount: 2
Back
Fore
SplineSet
288 64 m 1,0,-1
 320 96 l 1,1,-1
 320 192 l 1,2,-1
 224 192 l 1,3,-1
 192 160 l 1,4,-1
 192 96 l 1,5,-1
 224 64 l 1,6,-1
 288 64 l 1,0,-1
128 0 m 1,7,-1
 64 32 l 1,8,-1
 32 64 l 1,9,-1
 0 128 l 1,10,-1
 32 192 l 1,11,-1
 64 224 l 1,12,-1
 128 256 l 1,13,-1
 320 256 l 1,14,-1
 320 320 l 1,15,-1
 256 384 l 1,16,-1
 64 384 l 1,17,-1
 64 448 l 1,18,-1
 320 448 l 1,19,-1
 448 384 l 1,20,-1
 512 256 l 1,21,-1
 512 0 l 1,22,-1
 352 0 l 1,23,-1
 320 32 l 1,24,-1
 256 0 l 1,25,-1
 128 0 l 1,7,-1
64 512 m 1,26,-1
 64 544 l 1,27,-1
 224 704 l 1,28,-1
 288 704 l 1,29,-1
 448 544 l 1,30,-1
 448 512 l 1,31,-1
 384 512 l 1,32,-1
 256 640 l 1,33,-1
 128 512 l 1,34,-1
 64 512 l 1,26,-1
EndSplineSet
Validated: 1
EndChar

StartChar: atilde
Encoding: 227 227 163
Width: 640
Flags: W
LayerCount: 2
Back
Fore
SplineSet
288 64 m 1,0,-1
 320 96 l 1,1,-1
 320 192 l 1,2,-1
 224 192 l 1,3,-1
 192 160 l 1,4,-1
 192 96 l 1,5,-1
 224 64 l 1,6,-1
 288 64 l 1,0,-1
128 0 m 1,7,-1
 64 32 l 1,8,-1
 32 64 l 1,9,-1
 0 128 l 1,10,-1
 32 192 l 1,11,-1
 64 224 l 1,12,-1
 128 256 l 1,13,-1
 320 256 l 1,14,-1
 320 320 l 1,15,-1
 256 384 l 1,16,-1
 64 384 l 1,17,-1
 64 448 l 1,18,-1
 320 448 l 1,19,-1
 448 384 l 1,20,-1
 512 256 l 1,21,-1
 512 0 l 1,22,-1
 352 0 l 1,23,-1
 320 32 l 1,24,-1
 256 0 l 1,25,-1
 128 0 l 1,7,-1
64 576 m 1,26,-1
 64 608 l 1,27,-1
 128 672 l 1,28,-1
 192 704 l 1,29,-1
 320 640 l 1,30,-1
 384 704 l 1,31,-1
 448 704 l 1,32,-1
 448 672 l 1,33,-1
 384 608 l 1,34,-1
 320 576 l 1,35,-1
 192 640 l 1,36,-1
 128 576 l 1,37,-1
 64 576 l 1,26,-1
EndSplineSet
Validated: 1
EndChar

StartChar: adieresis
Encoding: 228 228 164
Width: 640
Flags: W
LayerCount: 2
Back
Fore
SplineSet
288 64 m 1,0,-1
 320 96 l 1,1,-1
 320 192 l 1,2,-1
 224 192 l 1,3,-1
 192 160 l 1,4,-1
 192 96 l 1,5,-1
 224 64 l 1,6,-1
 288 64 l 1,0,-1
128 0 m 1,7,-1
 64 32 l 1,8,-1
 32 64 l 1,9,-1
 0 128 l 1,10,-1
 32 192 l 1,11,-1
 64 224 l 1,12,-1
 128 256 l 1,13,-1
 320 256 l 1,14,-1
 320 320 l 1,15,-1
 256 384 l 1,16,-1
 64 384 l 1,17,-1
 64 448 l 1,18,-1
 320 448 l 1,19,-1
 448 384 l 1,20,-1
 512 256 l 1,21,-1
 512 0 l 1,22,-1
 352 0 l 1,23,-1
 320 32 l 1,24,-1
 256 0 l 1,25,-1
 128 0 l 1,7,-1
128 512 m 1,26,-1
 128 640 l 1,27,-1
 256 640 l 1,28,-1
 256 512 l 1,29,-1
 128 512 l 1,26,-1
320 512 m 1,30,-1
 320 640 l 1,31,-1
 448 640 l 1,32,-1
 448 512 l 1,33,-1
 320 512 l 1,30,-1
EndSplineSet
Validated: 1
EndChar

StartChar: aring
Encoding: 229 229 165
Width: 640
Flags: W
LayerCount: 2
Back
Fore
SplineSet
288 64 m 1,0,-1
 320 96 l 1,1,-1
 320 192 l 1,2,-1
 224 192 l 1,3,-1
 192 160 l 1,4,-1
 192 96 l 1,5,-1
 224 64 l 1,6,-1
 288 64 l 1,0,-1
128 0 m 1,7,-1
 64 32 l 1,8,-1
 32 64 l 1,9,-1
 0 128 l 1,10,-1
 32 192 l 1,11,-1
 64 224 l 1,12,-1
 128 256 l 1,13,-1
 320 256 l 1,14,-1
 320 320 l 1,15,-1
 256 384 l 1,16,-1
 64 384 l 1,17,-1
 64 448 l 1,18,-1
 320 448 l 1,19,-1
 448 384 l 1,20,-1
 512 256 l 1,21,-1
 512 0 l 1,22,-1
 352 0 l 1,23,-1
 320 32 l 1,24,-1
 256 0 l 1,25,-1
 128 0 l 1,7,-1
320 576 m 1,26,-1
 320 640 l 1,27,-1
 192 640 l 1,28,-1
 192 576 l 1,29,-1
 320 576 l 1,26,-1
192 512 m 1,30,-1
 128 576 l 1,31,-1
 128 640 l 1,32,-1
 192 704 l 1,33,-1
 320 704 l 1,34,-1
 384 640 l 1,35,-1
 384 576 l 1,36,-1
 320 512 l 1,37,-1
 192 512 l 1,30,-1
EndSplineSet
Validated: 1
EndChar

StartChar: ae
Encoding: 230 230 166
Width: 832
Flags: W
LayerCount: 2
Back
Fore
SplineSet
288 64 m 1,0,-1
 320 96 l 1,1,-1
 320 192 l 1,2,-1
 224 192 l 1,3,-1
 192 160 l 1,4,-1
 192 96 l 1,5,-1
 224 64 l 1,6,-1
 288 64 l 1,0,-1
576 256 m 1,7,-1
 576 320 l 1,8,-1
 554 362 l 1,9,-1
 512 384 l 1,10,-1
 448 384 l 1,11,-1
 448 256 l 1,12,-1
 576 256 l 1,7,-1
128 0 m 1,13,-1
 64 32 l 1,14,-1
 32 64 l 1,15,-1
 0 128 l 1,16,-1
 32 192 l 1,17,-1
 64 224 l 1,18,-1
 128 256 l 1,19,-1
 320 256 l 1,20,-1
 320 320 l 1,21,-1
 256 384 l 1,22,-1
 64 384 l 1,23,-1
 64 448 l 1,24,-1
 576 448 l 1,25,-1
 640 416 l 1,26,-1
 672 384 l 1,27,-1
 704 320 l 1,28,-1
 704 192 l 1,29,-1
 448 192 l 1,30,-1
 448 96 l 1,31,-1
 512 64 l 1,32,-1
 704 64 l 1,33,-1
 704 0 l 1,34,-1
 448 0 l 1,35,-1
 384 64 l 1,36,-1
 256 0 l 1,37,-1
 128 0 l 1,13,-1
EndSplineSet
Validated: 1
EndChar

StartChar: ccedilla
Encoding: 231 231 167
Width: 576
Flags: W
LayerCount: 2
Back
Fore
SplineSet
192 -192 m 1,0,-1
 192 -160 l 1,1,-1
 256 -128 l 1,2,-1
 256 -96 l 1,3,-1
 192 -64 l 1,4,-1
 192 0 l 1,5,-1
 384 -96 l 1,6,-1
 384 -128 l 1,7,-1
 256 -192 l 1,8,-1
 192 -192 l 1,0,-1
192 0 m 1,9,-1
 64 64 l 1,10,-1
 0 192 l 1,11,-1
 0 256 l 1,12,-1
 64 384 l 1,13,-1
 192 448 l 1,14,-1
 448 448 l 1,15,-1
 448 384 l 1,16,-1
 320 384 l 1,17,-1
 256 352 l 1,18,-1
 224 320 l 1,19,-1
 192 256 l 1,20,-1
 192 192 l 1,21,-1
 224 128 l 1,22,-1
 256 96 l 1,23,-1
 320 64 l 1,24,-1
 448 64 l 1,25,-1
 448 0 l 1,26,-1
 192 0 l 1,9,-1
EndSplineSet
Validated: 5
EndChar

StartChar: egrave
Encoding: 232 232 168
Width: 640
Flags: W
LayerCount: 2
Back
Fore
SplineSet
384 256 m 1,0,-1
 384 320 l 1,1,-1
 362 362 l 1,2,-1
 320 384 l 1,3,-1
 256 384 l 1,4,-1
 213 362 l 1,5,-1
 192 320 l 1,6,-1
 192 256 l 1,7,-1
 384 256 l 1,0,-1
192 0 m 1,8,-1
 64 64 l 1,9,-1
 0 192 l 1,10,-1
 0 256 l 1,11,-1
 64 384 l 1,12,-1
 192 448 l 1,13,-1
 384 448 l 1,14,-1
 448 416 l 1,15,-1
 480 384 l 1,16,-1
 512 320 l 1,17,-1
 512 192 l 1,18,-1
 192 192 l 1,19,-1
 224 128 l 1,20,-1
 256 96 l 1,21,-1
 320 64 l 1,22,-1
 448 64 l 1,23,-1
 448 0 l 1,24,-1
 192 0 l 1,8,-1
384 512 m 1,25,-1
 128 640 l 1,26,-1
 128 704 l 1,27,-1
 448 544 l 1,28,-1
 448 512 l 1,29,-1
 384 512 l 1,25,-1
EndSplineSet
Validated: 1
EndChar

StartChar: eacute
Encoding: 233 233 169
Width: 640
Flags: W
LayerCount: 2
Back
Fore
SplineSet
384 256 m 1,0,-1
 384 320 l 1,1,-1
 362 362 l 1,2,-1
 320 384 l 1,3,-1
 256 384 l 1,4,-1
 213 362 l 1,5,-1
 192 320 l 1,6,-1
 192 256 l 1,7,-1
 384 256 l 1,0,-1
192 0 m 1,8,-1
 64 64 l 1,9,-1
 0 192 l 1,10,-1
 0 256 l 1,11,-1
 64 384 l 1,12,-1
 192 448 l 1,13,-1
 384 448 l 1,14,-1
 448 416 l 1,15,-1
 480 384 l 1,16,-1
 512 320 l 1,17,-1
 512 192 l 1,18,-1
 192 192 l 1,19,-1
 224 128 l 1,20,-1
 256 96 l 1,21,-1
 320 64 l 1,22,-1
 448 64 l 1,23,-1
 448 0 l 1,24,-1
 192 0 l 1,8,-1
128 512 m 1,25,-1
 128 544 l 1,26,-1
 448 704 l 1,27,-1
 448 640 l 1,28,-1
 192 512 l 1,29,-1
 128 512 l 1,25,-1
EndSplineSet
Validated: 1
EndChar

StartChar: ecircumflex
Encoding: 234 234 170
Width: 640
Flags: W
LayerCount: 2
Back
Fore
SplineSet
384 256 m 1,0,-1
 384 320 l 1,1,-1
 362 362 l 1,2,-1
 320 384 l 1,3,-1
 256 384 l 1,4,-1
 213 362 l 1,5,-1
 192 320 l 1,6,-1
 192 256 l 1,7,-1
 384 256 l 1,0,-1
192 0 m 1,8,-1
 64 64 l 1,9,-1
 0 192 l 1,10,-1
 0 256 l 1,11,-1
 64 384 l 1,12,-1
 192 448 l 1,13,-1
 384 448 l 1,14,-1
 448 416 l 1,15,-1
 480 384 l 1,16,-1
 512 320 l 1,17,-1
 512 192 l 1,18,-1
 192 192 l 1,19,-1
 224 128 l 1,20,-1
 256 96 l 1,21,-1
 320 64 l 1,22,-1
 448 64 l 1,23,-1
 448 0 l 1,24,-1
 192 0 l 1,8,-1
64 512 m 1,25,-1
 64 544 l 1,26,-1
 224 704 l 1,27,-1
 288 704 l 1,28,-1
 448 544 l 1,29,-1
 448 512 l 1,30,-1
 384 512 l 1,31,-1
 256 640 l 1,32,-1
 128 512 l 1,33,-1
 64 512 l 1,25,-1
EndSplineSet
Validated: 1
EndChar

StartChar: edieresis
Encoding: 235 235 171
Width: 640
Flags: W
LayerCount: 2
Back
Fore
SplineSet
384 256 m 1,0,-1
 384 320 l 1,1,-1
 362 362 l 1,2,-1
 320 384 l 1,3,-1
 256 384 l 1,4,-1
 213 362 l 1,5,-1
 192 320 l 1,6,-1
 192 256 l 1,7,-1
 384 256 l 1,0,-1
192 0 m 1,8,-1
 64 64 l 1,9,-1
 0 192 l 1,10,-1
 0 256 l 1,11,-1
 64 384 l 1,12,-1
 192 448 l 1,13,-1
 384 448 l 1,14,-1
 448 416 l 1,15,-1
 480 384 l 1,16,-1
 512 320 l 1,17,-1
 512 192 l 1,18,-1
 192 192 l 1,19,-1
 224 128 l 1,20,-1
 256 96 l 1,21,-1
 320 64 l 1,22,-1
 448 64 l 1,23,-1
 448 0 l 1,24,-1
 192 0 l 1,8,-1
128 512 m 1,25,-1
 128 640 l 1,26,-1
 256 640 l 1,27,-1
 256 512 l 1,28,-1
 128 512 l 1,25,-1
320 512 m 1,29,-1
 320 640 l 1,30,-1
 448 640 l 1,31,-1
 448 512 l 1,32,-1
 320 512 l 1,29,-1
EndSplineSet
Validated: 1
EndChar

StartChar: igrave
Encoding: 236 236 172
Width: 448
Flags: W
LayerCount: 2
Back
Fore
SplineSet
64 0 m 1,0,-1
 64 448 l 1,1,-1
 256 448 l 1,2,-1
 256 0 l 1,3,-1
 64 0 l 1,0,-1
256 512 m 1,4,-1
 0 640 l 1,5,-1
 0 704 l 1,6,-1
 320 544 l 1,7,-1
 320 512 l 1,8,-1
 256 512 l 1,4,-1
EndSplineSet
Validated: 1
EndChar

StartChar: iacute
Encoding: 237 237 173
Width: 448
Flags: W
LayerCount: 2
Back
Fore
SplineSet
64 0 m 1,0,-1
 64 448 l 1,1,-1
 256 448 l 1,2,-1
 256 0 l 1,3,-1
 64 0 l 1,0,-1
0 512 m 1,4,-1
 0 544 l 1,5,-1
 320 704 l 1,6,-1
 320 640 l 1,7,-1
 64 512 l 1,8,-1
 0 512 l 1,4,-1
EndSplineSet
Validated: 1
EndChar

StartChar: icircumflex
Encoding: 238 238 174
Width: 512
Flags: W
LayerCount: 2
Back
Fore
SplineSet
96 0 m 1,0,-1
 96 448 l 1,1,-1
 288 448 l 1,2,-1
 288 0 l 1,3,-1
 96 0 l 1,0,-1
0 512 m 1,4,-1
 0 544 l 1,5,-1
 160 704 l 1,6,-1
 224 704 l 1,7,-1
 384 544 l 1,8,-1
 384 512 l 1,9,-1
 320 512 l 1,10,-1
 192 640 l 1,11,-1
 64 512 l 1,12,-1
 0 512 l 1,4,-1
EndSplineSet
Validated: 1
EndChar

StartChar: idieresis
Encoding: 239 239 175
Width: 448
Flags: W
LayerCount: 2
Back
Fore
SplineSet
64 0 m 1,0,-1
 64 448 l 1,1,-1
 256 448 l 1,2,-1
 256 0 l 1,3,-1
 64 0 l 1,0,-1
0 512 m 1,4,-1
 0 640 l 1,5,-1
 128 640 l 1,6,-1
 128 512 l 1,7,-1
 0 512 l 1,4,-1
192 512 m 1,8,-1
 192 640 l 1,9,-1
 320 640 l 1,10,-1
 320 512 l 1,11,-1
 192 512 l 1,8,-1
EndSplineSet
Validated: 1
EndChar

StartChar: eth
Encoding: 240 240 176
Width: 768
Flags: W
LayerCount: 2
Back
Fore
SplineSet
320 64 m 1,0,-1
 384 128 l 1,1,-1
 384 320 l 1,2,-1
 256 320 l 1,3,-1
 192 256 l 1,4,-1
 192 128 l 1,5,-1
 256 64 l 1,6,-1
 320 64 l 1,0,-1
192 0 m 1,7,-1
 64 64 l 1,8,-1
 0 192 l 1,9,-1
 64 320 l 1,10,-1
 192 384 l 1,11,-1
 384 384 l 1,12,-1
 384 448 l 1,13,-1
 256 448 l 1,14,-1
 256 512 l 1,15,-1
 384 512 l 1,16,-1
 384 576 l 1,17,-1
 576 576 l 1,18,-1
 576 512 l 1,19,-1
 640 512 l 1,20,-1
 640 448 l 1,21,-1
 576 448 l 1,22,-1
 576 192 l 1,23,-1
 512 64 l 1,24,-1
 384 0 l 1,25,-1
 192 0 l 1,7,-1
EndSplineSet
Validated: 1
EndChar

StartChar: ntilde
Encoding: 241 241 177
Width: 640
Flags: W
LayerCount: 2
Back
Fore
SplineSet
0 0 m 1,0,-1
 0 448 l 1,1,-1
 192 448 l 1,2,-1
 192 384 l 1,3,-1
 320 448 l 1,4,-1
 384 448 l 1,5,-1
 448 416 l 1,6,-1
 480 384 l 1,7,-1
 512 320 l 1,8,-1
 512 0 l 1,9,-1
 320 0 l 1,10,-1
 320 320 l 1,11,-1
 256 352 l 1,12,-1
 192 320 l 1,13,-1
 192 0 l 1,14,-1
 0 0 l 1,0,-1
64 512 m 1,15,-1
 64 544 l 1,16,-1
 128 608 l 1,17,-1
 192 640 l 1,18,-1
 320 576 l 1,19,-1
 384 640 l 1,20,-1
 448 640 l 1,21,-1
 448 608 l 1,22,-1
 384 544 l 1,23,-1
 320 512 l 1,24,-1
 192 576 l 1,25,-1
 128 512 l 1,26,-1
 64 512 l 1,15,-1
EndSplineSet
Validated: 1
EndChar

StartChar: ograve
Encoding: 242 242 178
Width: 704
Flags: W
LayerCount: 2
Back
Fore
SplineSet
320 64 m 1,0,-1
 384 128 l 1,1,-1
 384 320 l 1,2,-1
 320 384 l 1,3,-1
 256 384 l 1,4,-1
 192 320 l 1,5,-1
 192 128 l 1,6,-1
 256 64 l 1,7,-1
 320 64 l 1,0,-1
192 0 m 1,8,-1
 64 64 l 1,9,-1
 0 192 l 1,10,-1
 0 256 l 1,11,-1
 64 384 l 1,12,-1
 192 448 l 1,13,-1
 384 448 l 1,14,-1
 512 384 l 1,15,-1
 576 256 l 1,16,-1
 576 192 l 1,17,-1
 512 64 l 1,18,-1
 384 0 l 1,19,-1
 192 0 l 1,8,-1
384 512 m 1,20,-1
 128 640 l 1,21,-1
 128 704 l 1,22,-1
 448 544 l 1,23,-1
 448 512 l 1,24,-1
 384 512 l 1,20,-1
EndSplineSet
Validated: 1
EndChar

StartChar: oacute
Encoding: 243 243 179
Width: 704
Flags: W
LayerCount: 2
Back
Fore
SplineSet
320 64 m 1,0,-1
 384 128 l 1,1,-1
 384 320 l 1,2,-1
 320 384 l 1,3,-1
 256 384 l 1,4,-1
 192 320 l 1,5,-1
 192 128 l 1,6,-1
 256 64 l 1,7,-1
 320 64 l 1,0,-1
192 0 m 1,8,-1
 64 64 l 1,9,-1
 0 192 l 1,10,-1
 0 256 l 1,11,-1
 64 384 l 1,12,-1
 192 448 l 1,13,-1
 384 448 l 1,14,-1
 512 384 l 1,15,-1
 576 256 l 1,16,-1
 576 192 l 1,17,-1
 512 64 l 1,18,-1
 384 0 l 1,19,-1
 192 0 l 1,8,-1
128 512 m 1,20,-1
 128 544 l 1,21,-1
 448 704 l 1,22,-1
 448 640 l 1,23,-1
 192 512 l 1,24,-1
 128 512 l 1,20,-1
EndSplineSet
Validated: 1
EndChar

StartChar: ocircumflex
Encoding: 244 244 180
Width: 704
Flags: W
LayerCount: 2
Back
Fore
SplineSet
320 64 m 1,0,-1
 384 128 l 1,1,-1
 384 320 l 1,2,-1
 320 384 l 1,3,-1
 256 384 l 1,4,-1
 192 320 l 1,5,-1
 192 128 l 1,6,-1
 256 64 l 1,7,-1
 320 64 l 1,0,-1
192 0 m 1,8,-1
 64 64 l 1,9,-1
 0 192 l 1,10,-1
 0 256 l 1,11,-1
 64 384 l 1,12,-1
 192 448 l 1,13,-1
 384 448 l 1,14,-1
 512 384 l 1,15,-1
 576 256 l 1,16,-1
 576 192 l 1,17,-1
 512 64 l 1,18,-1
 384 0 l 1,19,-1
 192 0 l 1,8,-1
96 512 m 1,20,-1
 96 544 l 1,21,-1
 256 704 l 1,22,-1
 320 704 l 1,23,-1
 480 544 l 1,24,-1
 480 512 l 1,25,-1
 416 512 l 1,26,-1
 288 640 l 1,27,-1
 160 512 l 1,28,-1
 96 512 l 1,20,-1
EndSplineSet
Validated: 1
EndChar

StartChar: otilde
Encoding: 245 245 181
Width: 704
Flags: W
LayerCount: 2
Back
Fore
SplineSet
320 64 m 1,0,-1
 384 128 l 1,1,-1
 384 320 l 1,2,-1
 320 384 l 1,3,-1
 256 384 l 1,4,-1
 192 320 l 1,5,-1
 192 128 l 1,6,-1
 256 64 l 1,7,-1
 320 64 l 1,0,-1
192 0 m 1,8,-1
 64 64 l 1,9,-1
 0 192 l 1,10,-1
 0 256 l 1,11,-1
 64 384 l 1,12,-1
 192 448 l 1,13,-1
 384 448 l 1,14,-1
 512 384 l 1,15,-1
 576 256 l 1,16,-1
 576 192 l 1,17,-1
 512 64 l 1,18,-1
 384 0 l 1,19,-1
 192 0 l 1,8,-1
96 512 m 1,20,-1
 96 544 l 1,21,-1
 160 608 l 1,22,-1
 224 640 l 1,23,-1
 352 576 l 1,24,-1
 416 640 l 1,25,-1
 480 640 l 1,26,-1
 480 608 l 1,27,-1
 416 544 l 1,28,-1
 352 512 l 1,29,-1
 224 576 l 1,30,-1
 160 512 l 1,31,-1
 96 512 l 1,20,-1
EndSplineSet
Validated: 1
EndChar

StartChar: odieresis
Encoding: 246 246 182
Width: 704
Flags: W
LayerCount: 2
Back
Fore
SplineSet
320 64 m 1,0,-1
 384 128 l 1,1,-1
 384 320 l 1,2,-1
 320 384 l 1,3,-1
 256 384 l 1,4,-1
 192 320 l 1,5,-1
 192 128 l 1,6,-1
 256 64 l 1,7,-1
 320 64 l 1,0,-1
192 0 m 1,8,-1
 64 64 l 1,9,-1
 0 192 l 1,10,-1
 0 256 l 1,11,-1
 64 384 l 1,12,-1
 192 448 l 1,13,-1
 384 448 l 1,14,-1
 512 384 l 1,15,-1
 576 256 l 1,16,-1
 576 192 l 1,17,-1
 512 64 l 1,18,-1
 384 0 l 1,19,-1
 192 0 l 1,8,-1
128 512 m 1,20,-1
 128 640 l 1,21,-1
 256 640 l 1,22,-1
 256 512 l 1,23,-1
 128 512 l 1,20,-1
320 512 m 1,24,-1
 320 640 l 1,25,-1
 448 640 l 1,26,-1
 448 512 l 1,27,-1
 320 512 l 1,24,-1
EndSplineSet
Validated: 1
EndChar

StartChar: divide
Encoding: 247 247 183
Width: 640
Flags: W
LayerCount: 2
Back
Fore
SplineSet
192 128 m 1,0,-1
 192 256 l 1,1,-1
 320 256 l 1,2,-1
 320 128 l 1,3,-1
 192 128 l 1,0,-1
0 320 m 1,4,-1
 0 384 l 1,5,-1
 512 384 l 1,6,-1
 512 320 l 1,7,-1
 0 320 l 1,4,-1
192 448 m 1,8,-1
 192 576 l 1,9,-1
 320 576 l 1,10,-1
 320 448 l 1,11,-1
 192 448 l 1,8,-1
EndSplineSet
Validated: 1
EndChar

StartChar: oslash
Encoding: 248 248 184
Width: 704
Flags: W
LayerCount: 2
Back
Fore
SplineSet
320 64 m 1,0,-1
 384 128 l 1,1,-1
 384 240 l 1,2,-1
 192 144 l 1,3,-1
 192 128 l 1,4,-1
 256 64 l 1,5,-1
 320 64 l 1,0,-1
192 208 m 1,6,-1
 384 304 l 1,7,-1
 384 320 l 1,8,-1
 320 384 l 1,9,-1
 256 384 l 1,10,-1
 192 320 l 1,11,-1
 192 208 l 1,12,-1
 192 208 l 1,6,-1
192 0 m 1,13,-1
 64 64 l 1,14,-1
 0 192 l 1,15,-1
 0 256 l 1,16,-1
 64 384 l 1,17,-1
 192 448 l 1,18,-1
 384 448 l 1,19,-1
 512 384 l 1,20,-1
 576 256 l 1,21,-1
 576 192 l 1,22,-1
 512 64 l 1,23,-1
 384 0 l 1,24,-1
 192 0 l 1,13,-1
EndSplineSet
Validated: 5
EndChar

StartChar: ugrave
Encoding: 249 249 185
Width: 640
Flags: W
LayerCount: 2
Back
Fore
SplineSet
128 0 m 1,0,-1
 64 32 l 1,1,-1
 32 64 l 1,2,-1
 0 128 l 1,3,-1
 0 448 l 1,4,-1
 192 448 l 1,5,-1
 192 128 l 1,6,-1
 256 96 l 1,7,-1
 320 128 l 1,8,-1
 320 448 l 1,9,-1
 512 448 l 1,10,-1
 512 0 l 1,11,-1
 320 0 l 1,12,-1
 320 64 l 1,13,-1
 192 0 l 1,14,-1
 128 0 l 1,0,-1
384 512 m 1,15,-1
 128 640 l 1,16,-1
 128 704 l 1,17,-1
 448 544 l 1,18,-1
 448 512 l 1,19,-1
 384 512 l 1,15,-1
EndSplineSet
Validated: 1
EndChar

StartChar: uacute
Encoding: 250 250 186
Width: 640
Flags: W
LayerCount: 2
Back
Fore
SplineSet
128 0 m 1,0,-1
 64 32 l 1,1,-1
 32 64 l 1,2,-1
 0 128 l 1,3,-1
 0 448 l 1,4,-1
 192 448 l 1,5,-1
 192 128 l 1,6,-1
 256 96 l 1,7,-1
 320 128 l 1,8,-1
 320 448 l 1,9,-1
 512 448 l 1,10,-1
 512 0 l 1,11,-1
 320 0 l 1,12,-1
 320 64 l 1,13,-1
 192 0 l 1,14,-1
 128 0 l 1,0,-1
128 512 m 1,15,-1
 128 544 l 1,16,-1
 448 704 l 1,17,-1
 448 640 l 1,18,-1
 192 512 l 1,19,-1
 128 512 l 1,15,-1
EndSplineSet
Validated: 1
EndChar

StartChar: ucircumflex
Encoding: 251 251 187
Width: 640
Flags: W
LayerCount: 2
Back
Fore
SplineSet
128 0 m 1,0,-1
 64 32 l 1,1,-1
 32 64 l 1,2,-1
 0 128 l 1,3,-1
 0 448 l 1,4,-1
 192 448 l 1,5,-1
 192 128 l 1,6,-1
 256 96 l 1,7,-1
 320 128 l 1,8,-1
 320 448 l 1,9,-1
 512 448 l 1,10,-1
 512 0 l 1,11,-1
 320 0 l 1,12,-1
 320 64 l 1,13,-1
 192 0 l 1,14,-1
 128 0 l 1,0,-1
64 512 m 1,15,-1
 64 544 l 1,16,-1
 224 704 l 1,17,-1
 288 704 l 1,18,-1
 448 544 l 1,19,-1
 448 512 l 1,20,-1
 384 512 l 1,21,-1
 256 640 l 1,22,-1
 128 512 l 1,23,-1
 64 512 l 1,15,-1
EndSplineSet
Validated: 1
EndChar

StartChar: udieresis
Encoding: 252 252 188
Width: 640
Flags: W
LayerCount: 2
Back
Fore
SplineSet
128 0 m 1,0,-1
 64 32 l 1,1,-1
 32 64 l 1,2,-1
 0 128 l 1,3,-1
 0 448 l 1,4,-1
 192 448 l 1,5,-1
 192 128 l 1,6,-1
 256 96 l 1,7,-1
 320 128 l 1,8,-1
 320 448 l 1,9,-1
 512 448 l 1,10,-1
 512 0 l 1,11,-1
 320 0 l 1,12,-1
 320 64 l 1,13,-1
 192 0 l 1,14,-1
 128 0 l 1,0,-1
64 512 m 1,15,-1
 64 640 l 1,16,-1
 192 640 l 1,17,-1
 192 512 l 1,18,-1
 64 512 l 1,15,-1
320 512 m 1,19,-1
 320 640 l 1,20,-1
 448 640 l 1,21,-1
 448 512 l 1,22,-1
 320 512 l 1,19,-1
EndSplineSet
Validated: 1
EndChar

StartChar: yacute
Encoding: 253 253 189
Width: 640
Flags: W
LayerCount: 2
Back
Fore
SplineSet
0 -192 m 1,0,-1
 0 -128 l 1,1,-1
 160 -128 l 1,2,-1
 192 -64 l 1,3,-1
 192 0 l 1,4,-1
 0 384 l 1,5,-1
 0 448 l 1,6,-1
 128 448 l 1,7,-1
 288 128 l 1,8,-1
 448 448 l 1,9,-1
 512 448 l 1,10,-1
 512 384 l 1,11,-1
 256 -128 l 1,12,-1
 192 -192 l 1,13,-1
 0 -192 l 1,0,-1
128 512 m 1,14,-1
 128 544 l 1,15,-1
 448 704 l 1,16,-1
 448 640 l 1,17,-1
 192 512 l 1,18,-1
 128 512 l 1,14,-1
EndSplineSet
Validated: 1
EndChar

StartChar: thorn
Encoding: 254 254 190
Width: 640
Flags: W
LayerCount: 2
Back
Fore
SplineSet
256 64 m 1,0,-1
 320 128 l 1,1,-1
 320 320 l 1,2,-1
 256 352 l 1,3,-1
 192 320 l 1,4,-1
 192 64 l 1,5,-1
 256 64 l 1,0,-1
0 -192 m 1,6,-1
 0 576 l 1,7,-1
 192 576 l 1,8,-1
 192 384 l 1,9,-1
 320 448 l 1,10,-1
 384 448 l 1,11,-1
 448 416 l 1,12,-1
 480 384 l 1,13,-1
 512 320 l 1,14,-1
 512 192 l 1,15,-1
 480 128 l 1,16,-1
 448 96 l 1,17,-1
 256 0 l 1,18,-1
 192 0 l 1,19,-1
 192 -192 l 1,20,-1
 0 -192 l 1,6,-1
EndSplineSet
Validated: 1
EndChar

StartChar: ydieresis
Encoding: 255 255 191
Width: 640
Flags: W
LayerCount: 2
Back
Fore
SplineSet
0 -192 m 1,0,-1
 0 -128 l 1,1,-1
 160 -128 l 1,2,-1
 192 -64 l 1,3,-1
 192 0 l 1,4,-1
 0 384 l 1,5,-1
 0 448 l 1,6,-1
 128 448 l 1,7,-1
 288 128 l 1,8,-1
 448 448 l 1,9,-1
 512 448 l 1,10,-1
 512 384 l 1,11,-1
 256 -128 l 1,12,-1
 192 -192 l 1,13,-1
 0 -192 l 1,0,-1
128 512 m 1,14,-1
 128 640 l 1,15,-1
 256 640 l 1,16,-1
 256 512 l 1,17,-1
 128 512 l 1,14,-1
320 512 m 1,18,-1
 320 640 l 1,19,-1
 448 640 l 1,20,-1
 448 512 l 1,21,-1
 320 512 l 1,18,-1
EndSplineSet
Validated: 1
EndChar

StartChar: Uring
Encoding: 366 366 192
Width: 640
Flags: W
LayerCount: 2
Back
Fore
SplineSet
192 0 m 1,0,-1
 128 32 l 1,1,-1
 32 128 l 1,2,-1
 0 192 l 1,3,-1
 0 576 l 1,4,-1
 192 576 l 1,5,-1
 192 128 l 1,6,-1
 256 64 l 1,7,-1
 320 64 l 1,8,-1
 384 128 l 1,9,-1
 384 576 l 1,10,-1
 512 576 l 1,11,-1
 512 192 l 1,12,-1
 480 128 l 1,13,-1
 384 32 l 1,14,-1
 320 0 l 1,15,-1
 192 0 l 1,0,-1
320 640 m 1,16,-1
 320 704 l 1,17,-1
 192 704 l 1,18,-1
 192 640 l 1,19,-1
 320 640 l 1,16,-1
192 576 m 1,20,-1
 128 640 l 1,21,-1
 128 704 l 1,22,-1
 192 768 l 1,23,-1
 320 768 l 1,24,-1
 384 704 l 1,25,-1
 384 640 l 1,26,-1
 320 576 l 1,27,-1
 192 576 l 1,20,-1
EndSplineSet
Validated: 5
EndChar

StartChar: uring
Encoding: 367 367 193
Width: 640
Flags: W
LayerCount: 2
Back
Fore
SplineSet
128 0 m 1,0,-1
 64 32 l 1,1,-1
 32 64 l 1,2,-1
 0 128 l 1,3,-1
 0 448 l 1,4,-1
 192 448 l 1,5,-1
 192 128 l 1,6,-1
 256 96 l 1,7,-1
 320 128 l 1,8,-1
 320 448 l 1,9,-1
 512 448 l 1,10,-1
 512 0 l 1,11,-1
 320 0 l 1,12,-1
 320 64 l 1,13,-1
 192 0 l 1,14,-1
 128 0 l 1,0,-1
320 576 m 1,15,-1
 320 640 l 1,16,-1
 192 640 l 1,17,-1
 192 576 l 1,18,-1
 320 576 l 1,15,-1
192 512 m 1,19,-1
 128 576 l 1,20,-1
 128 640 l 1,21,-1
 192 704 l 1,22,-1
 320 704 l 1,23,-1
 384 640 l 1,24,-1
 384 576 l 1,25,-1
 320 512 l 1,26,-1
 192 512 l 1,19,-1
EndSplineSet
Validated: 1
EndChar

StartChar: Ydieresis
Encoding: 376 376 194
Width: 704
Flags: W
LayerCount: 2
Back
Fore
SplineSet
192 0 m 1,0,-1
 192 192 l 1,1,-1
 0 576 l 1,2,-1
 160 576 l 1,3,-1
 320 256 l 1,4,-1
 480 576 l 1,5,-1
 576 576 l 1,6,-1
 384 192 l 1,7,-1
 384 0 l 1,8,-1
 192 0 l 1,0,-1
128 640 m 1,9,-1
 128 768 l 1,10,-1
 256 768 l 1,11,-1
 256 640 l 1,12,-1
 128 640 l 1,9,-1
320 640 m 1,13,-1
 320 768 l 1,14,-1
 448 768 l 1,15,-1
 448 640 l 1,16,-1
 320 640 l 1,13,-1
EndSplineSet
Validated: 1
EndChar

StartChar: uni1E9E
Encoding: 7838 7838 195
Width: 768
Flags: W
LayerCount: 2
Back
Fore
SplineSet
256 -128 m 1,0,-1
 256 -64 l 1,1,-1
 512 -64 l 1,2,-1
 544 0 l 1,3,-1
 480 64 l 1,4,-1
 256 64 l 1,5,-1
 512 320 l 1,6,-1
 192 320 l 1,7,-1
 192 0 l 1,8,-1
 0 0 l 1,9,-1
 0 576 l 1,10,-1
 512 576 l 1,11,-1
 512 512 l 1,12,-1
 192 512 l 1,13,-1
 192 384 l 1,14,-1
 640 384 l 1,15,-1
 640 288 l 1,16,-1
 480 128 l 1,17,-1
 512 128 l 1,18,-1
 640 0 l 1,19,-1
 640 -32 l 1,20,-1
 576 -96 l 1,21,-1
 512 -128 l 1,22,-1
 256 -128 l 1,0,-1
EndSplineSet
Validated: 1
EndChar

StartChar: emdash
Encoding: 8212 8212 196
Width: 640
Flags: W
LayerCount: 2
Back
Fore
SplineSet
0 256 m 1,0,-1
 0 320 l 1,1,-1
 512 320 l 1,2,-1
 512 256 l 1,3,-1
 0 256 l 1,0,-1
EndSplineSet
Validated: 1
EndChar

StartChar: quoteleft
Encoding: 8216 8216 197
Width: 320
Flags: W
LayerCount: 2
Back
Fore
SplineSet
0 384 m 1,0,-1
 0 512 l 1,1,-1
 64 576 l 1,2,-1
 160 576 l 1,3,-1
 128 512 l 1,4,-1
 128 384 l 1,5,-1
 0 384 l 1,0,-1
EndSplineSet
Validated: 1
EndChar

StartChar: quoteright
Encoding: 8217 8217 198
Width: 320
Flags: W
LayerCount: 2
Back
Fore
SplineSet
32 384 m 1,0,-1
 64 448 l 1,1,-1
 64 576 l 1,2,-1
 192 576 l 1,3,-1
 192 448 l 1,4,-1
 128 384 l 1,5,-1
 32 384 l 1,0,-1
EndSplineSet
Validated: 1
EndChar

StartChar: quotesinglbase
Encoding: 8218 8218 199
Width: 320
Flags: W
LayerCount: 2
Back
Fore
SplineSet
32 -64 m 1,0,-1
 64 0 l 1,1,-1
 64 128 l 1,2,-1
 192 128 l 1,3,-1
 192 0 l 1,4,-1
 128 -64 l 1,5,-1
 32 -64 l 1,0,-1
EndSplineSet
Validated: 1
EndChar

StartChar: quotereversed
Encoding: 8219 8219 200
Width: 320
Flags: W
LayerCount: 2
Back
Fore
SplineSet
64 384 m 1,0,-1
 0 448 l 1,1,-1
 0 576 l 1,2,-1
 128 576 l 1,3,-1
 128 448 l 1,4,-1
 160 384 l 1,5,-1
 64 384 l 1,0,-1
EndSplineSet
Validated: 1
EndChar

StartChar: quotedblleft
Encoding: 8220 8220 201
Width: 512
Flags: W
LayerCount: 2
Back
Fore
SplineSet
0 384 m 1,0,-1
 0 512 l 1,1,-1
 64 576 l 1,2,-1
 160 576 l 1,3,-1
 128 512 l 1,4,-1
 128 384 l 1,5,-1
 0 384 l 1,0,-1
192 384 m 1,6,-1
 192 512 l 1,7,-1
 256 576 l 1,8,-1
 352 576 l 1,9,-1
 320 512 l 1,10,-1
 320 384 l 1,11,-1
 192 384 l 1,6,-1
EndSplineSet
Validated: 1
EndChar

StartChar: quotedblright
Encoding: 8221 8221 202
Width: 512
Flags: W
LayerCount: 2
Back
Fore
SplineSet
32 384 m 1,0,-1
 64 448 l 1,1,-1
 64 576 l 1,2,-1
 192 576 l 1,3,-1
 192 448 l 1,4,-1
 128 384 l 1,5,-1
 32 384 l 1,0,-1
224 384 m 1,6,-1
 256 448 l 1,7,-1
 256 576 l 1,8,-1
 384 576 l 1,9,-1
 384 448 l 1,10,-1
 320 384 l 1,11,-1
 224 384 l 1,6,-1
EndSplineSet
Validated: 1
EndChar

StartChar: quotedblbase
Encoding: 8222 8222 203
Width: 512
Flags: W
LayerCount: 2
Back
Fore
SplineSet
32 -64 m 1,0,-1
 64 0 l 1,1,-1
 64 128 l 1,2,-1
 192 128 l 1,3,-1
 192 0 l 1,4,-1
 128 -64 l 1,5,-1
 32 -64 l 1,0,-1
224 -64 m 1,6,-1
 256 0 l 1,7,-1
 256 128 l 1,8,-1
 384 128 l 1,9,-1
 384 0 l 1,10,-1
 320 -64 l 1,11,-1
 224 -64 l 1,6,-1
EndSplineSet
Validated: 1
EndChar

StartChar: dagger
Encoding: 8224 8224 204
Width: 512
Flags: W
LayerCount: 2
Back
Fore
SplineSet
128 64 m 1,0,-1
 128 448 l 1,1,-1
 0 448 l 1,2,-1
 0 512 l 1,3,-1
 128 512 l 1,4,-1
 128 640 l 1,5,-1
 256 640 l 1,6,-1
 256 512 l 1,7,-1
 384 512 l 1,8,-1
 384 448 l 1,9,-1
 256 448 l 1,10,-1
 256 64 l 1,11,-1
 128 64 l 1,0,-1
EndSplineSet
Validated: 1
EndChar

StartChar: bullet
Encoding: 8226 8226 205
Width: 384
Flags: W
LayerCount: 2
Back
Fore
SplineSet
128 320 m 1,0,-1
 64 384 l 1,1,-1
 64 448 l 1,2,-1
 128 512 l 1,3,-1
 192 512 l 1,4,-1
 256 448 l 1,5,-1
 256 384 l 1,6,-1
 192 320 l 1,7,-1
 128 320 l 1,0,-1
EndSplineSet
Validated: 1
EndChar

StartChar: ellipsis
Encoding: 8230 8230 206
Width: 640
Flags: W
LayerCount: 2
Back
Fore
SplineSet
0 0 m 1,0,-1
 0 128 l 1,1,-1
 128 128 l 1,2,-1
 128 0 l 1,3,-1
 0 0 l 1,0,-1
192 0 m 1,4,-1
 192 128 l 1,5,-1
 320 128 l 1,6,-1
 320 0 l 1,7,-1
 192 0 l 1,4,-1
384 0 m 1,8,-1
 384 128 l 1,9,-1
 512 128 l 1,10,-1
 512 0 l 1,11,-1
 384 0 l 1,8,-1
EndSplineSet
Validated: 1
EndChar

StartChar: guilsinglleft
Encoding: 8249 8249 207
Width: 320
Flags: W
LayerCount: 2
Back
Fore
SplineSet
96 128 m 1,0,-1
 0 320 l 1,1,-1
 96 512 l 1,2,-1
 192 512 l 1,3,-1
 96 320 l 1,4,-1
 192 128 l 1,5,-1
 96 128 l 1,0,-1
EndSplineSet
Validated: 1
EndChar

StartChar: guilsinglright
Encoding: 8250 8250 208
Width: 320
Flags: W
LayerCount: 2
Back
Fore
SplineSet
0 128 m 1,0,-1
 96 320 l 1,1,-1
 0 512 l 1,2,-1
 96 512 l 1,3,-1
 192 320 l 1,4,-1
 96 128 l 1,5,-1
 0 128 l 1,0,-1
EndSplineSet
Validated: 1
EndChar

StartChar: Euro
Encoding: 8364 8364 209
Width: 640
Flags: W
LayerCount: 2
Back
Fore
SplineSet
320 0 m 1,0,-1
 192 64 l 1,1,-1
 128 128 l 1,2,-1
 96 192 l 1,3,-1
 0 192 l 1,4,-1
 0 256 l 1,5,-1
 64 256 l 1,6,-1
 64 320 l 1,7,-1
 0 320 l 1,8,-1
 0 384 l 1,9,-1
 96 384 l 1,10,-1
 128 448 l 1,11,-1
 192 512 l 1,12,-1
 320 576 l 1,13,-1
 512 576 l 1,14,-1
 512 512 l 1,15,-1
 384 512 l 1,16,-1
 320 480 l 1,17,-1
 288 448 l 1,18,-1
 256 384 l 1,19,-1
 448 384 l 1,20,-1
 448 320 l 1,21,-1
 256 320 l 1,22,-1
 256 256 l 1,23,-1
 448 256 l 1,24,-1
 448 192 l 1,25,-1
 256 192 l 1,26,-1
 288 128 l 1,27,-1
 320 96 l 1,28,-1
 384 64 l 1,29,-1
 512 64 l 1,30,-1
 512 0 l 1,31,-1
 320 0 l 1,0,-1
EndSplineSet
Validated: 1
EndChar

StartChar: trademark
Encoding: 8482 8482 210
Width: 640
Flags: W
LayerCount: 2
Back
Fore
SplineSet
64 384 m 1,0,-1
 64 512 l 1,1,-1
 0 512 l 1,2,-1
 0 576 l 1,3,-1
 192 576 l 1,4,-1
 192 512 l 1,5,-1
 128 512 l 1,6,-1
 128 384 l 1,7,-1
 64 384 l 1,0,-1
256 384 m 1,8,-1
 256 576 l 1,9,-1
 384 448 l 1,10,-1
 512 576 l 1,11,-1
 512 384 l 1,12,-1
 448 384 l 1,13,-1
 448 448 l 1,14,-1
 384 384 l 1,15,-1
 320 448 l 1,16,-1
 320 384 l 1,17,-1
 256 384 l 1,8,-1
EndSplineSet
Validated: 1
EndChar
